<?xml version="1.0" encoding="UTF-8" standalone="no"?>
<svg
   version="1.1"
   width="3.2681324in"
   height="1.2903329in"
   viewBox="0 0 235.30544 92.903931"
   id="svg106"
   sodipodi:docname="KLIMBOYS_LOGO_CDR.svg"
   inkscape:version="1.3.2 (091e20e, 2023-11-25, custom)"
   xmlns:inkscape="http://www.inkscape.org/namespaces/inkscape"
   xmlns:sodipodi="http://sodipodi.sourceforge.net/DTD/sodipodi-0.dtd"
   xmlns="http://www.w3.org/2000/svg"
   xmlns:svg="http://www.w3.org/2000/svg">
  <defs
     id="defs106" />
  <sodipodi:namedview
     id="namedview106"
     pagecolor="#ffffff"
     bordercolor="#000000"
     borderopacity="0.25"
     inkscape:showpageshadow="2"
     inkscape:pageopacity="0.0"
     inkscape:pagecheckerboard="0"
     inkscape:deskcolor="#d1d1d1"
     inkscape:document-units="in"
     inkscape:zoom="2.318721"
     inkscape:cx="168.84308"
     inkscape:cy="765.2926"
     inkscape:window-width="1920"
     inkscape:window-height="1001"
     inkscape:window-x="-9"
     inkscape:window-y="-9"
     inkscape:window-maximized="1"
     inkscape:current-layer="svg106" />
  <g
     id="Layer1000"
     inkscape:export-filename="klimboys-logo-landscape.svg"
     inkscape:export-xdpi="96"
     inkscape:export-ydpi="96"
     transform="translate(-409.75763,-95.665855)">
    <path
       d="m 630.2503,121.994 7.9644,1.3041 c 1.4485,0.2356 2.6653,1.0368 3.4604,2.1413 0.7953,1.1042 1.1695,2.5122 0.9339,3.9607 -0.0833,0.5127 -0.2364,0.9946 -0.4477,1.4376 -0.216,0.4529 -0.4961,0.8702 -0.8271,1.2418 l -3.5677,4.5094 c 0.6954,0.0855 1.3593,0.3076 1.9566,0.6441 0.723,0.4075 1.3498,0.9823 1.8181,1.6851 l 0.0192,-0.0107 0.1997,0.3547 2.6226,4.6633 c 0.6183,1.1032 0.8015,2.3329 0.6051,3.4894 -0.2001,1.1805 -0.7951,2.2858 -1.7249,3.1054 l -2e-4,-2e-4 -15.2073,15.0293 c -0.5066,0.4982 -1.0901,0.875 -1.7125,1.1297 -0.5177,0.2118 -1.0599,0.3388 -1.6054,0.3813 v 0.0302 h -0.4101 -7.4508 c -1.3384,0 -2.5622,-0.4938 -3.4984,-1.3086 -0.6698,-0.5829 -1.1926,-1.3318 -1.5053,-2.1827 l -3.0317,5.9961 c -0.6616,1.3117 -1.7922,2.2312 -3.0844,2.6569 -1.2922,0.4255 -2.7476,0.3579 -4.0592,-0.3035 -0.2915,-0.147 -0.5669,-0.3204 -0.8236,-0.5151 -0.1511,-0.1147 -0.2938,-0.2353 -0.428,-0.3611 l -0.0135,0.0121 -0.2759,-0.3023 -5.2841,-5.7865 c -0.4391,-0.4827 -0.7736,-1.0255 -1.0036,-1.5993 -0.202,-0.5033 -0.3233,-1.0312 -0.365,-1.5635 -0.4208,-0.1516 -0.8375,-0.3329 -1.2489,-0.543 -0.4931,-0.252 -0.9713,-0.5427 -1.4321,-0.8711 -0.6779,-0.4828 -1.3232,-1.0504 -1.9267,-1.6976 -0.4912,-0.5264 -0.9554,-1.1061 -1.388,-1.7362 l -10.9214,10.1344 0.2079,1.7661 c 0.1665,1.4605 -0.2746,2.8508 -1.1226,3.9173 -0.8479,1.0666 -2.103,1.8099 -3.5634,1.9764 -0.6217,0.0709 -1.231,0.0315 -1.8078,-0.1025 -0.5984,-0.139 -1.1621,-0.38 -1.668,-0.7045 l -8.0071,-4.4635 c -0.8973,-0.499 -1.5943,-1.2201 -2.0594,-2.0565 -0.4805,-0.8638 -0.7141,-1.851 -0.6668,-2.8439 h 1e-4 l 0.0417,-4.1291 c -0.1839,0.0452 -0.3704,0.0807 -0.5582,0.1063 -0.3797,0.0516 -0.7634,0.0629 -1.1433,0.0328 v -5e-4 l -3.5726,-0.2195 c -0.3118,0.5602 -0.7213,1.0563 -1.2036,1.4669 l 7e-4,8e-4 c -0.5471,0.4659 -1.1893,0.8222 -1.8897,1.0374 l -5.8675,2.3303 c -1.2004,0.4761 -2.4694,0.4846 -3.6058,0.1127 -1.0569,-0.3458 -2.001,-1.0217 -2.6695,-1.9571 -0.3848,0.1144 -0.7851,0.1862 -1.1936,0.2105 -0.501,0.0299 -1.0141,-0.0108 -1.5259,-0.1299 -0.2945,-0.0684 -0.5781,-0.1608 -0.849,-0.2741 -0.2729,-0.1141 -0.5343,-0.2507 -0.7817,-0.4067 l -1.8486,-0.9843 -3.6728,3.7028 c -0.9636,0.9692 -2.2087,1.4894 -3.474,1.5595 -1.2781,0.0707 -2.5773,-0.318 -3.6287,-1.1661 v -1e-4 l -5.8407,-4.5069 c -0.1747,1.0133 -0.6383,1.9405 -1.3118,2.6805 -0.829,0.9107 -1.9758,1.5404 -3.2933,1.701 h -0.002 c -0.2909,0.0355 -0.5834,0.0463 -0.874,0.034 -0.2922,-0.0125 -0.5781,-0.0486 -0.8549,-0.106 l -4.8361,-0.6562 c -1.0672,-0.1433 -2.0182,-0.5945 -2.7745,-1.2516 -0.6763,-0.5878 -1.1978,-1.3403 -1.5087,-2.1845 l -0.0192,0.006 -0.1127,-0.4016 -1.4705,-5.2404 c -0.02,0.1853 -0.0413,0.3707 -0.064,0.5556 -0.1953,1.5925 -0.4962,3.1793 -0.9063,4.7506 -0.4014,1.5379 -0.9074,3.0558 -1.5209,4.5435 -1.1544,2.7988 -2.68,5.4508 -4.6002,7.8913 -1.8391,2.3375 -4.0415,4.4834 -6.6277,6.3811 -2.401,1.7618 -5.1265,3.3035 -8.1903,4.5772 -2.9304,1.2178 -6.1719,2.1913 -9.7375,2.878 -1.0144,0.1952 -2.0883,0.364 -3.2066,0.5054 -0.9974,0.1262 -2.0164,0.2293 -3.0473,0.3089 l 4e-4,0.003 -0.4315,0.0303 c -1.1293,0.0796 -2.3158,0.1316 -3.5437,0.1554 -1.2167,0.0236 -2.4625,0.0185 -3.7217,-0.0149 -1.2379,-0.033 -2.4632,-0.0945 -3.6604,-0.1843 -1.1836,-0.0889 -2.3681,-0.2076 -3.5394,-0.3561 -1.1651,-0.1478 -2.3017,-0.324 -3.3964,-0.5279 -1.0739,-0.2 -2.1106,-0.4278 -3.0972,-0.6826 -3.1999,-0.8261 -6.1112,-1.9023 -8.7451,-3.1913 -2.747,-1.3446 -5.1911,-2.9206 -7.345,-4.687 -2.3009,-1.887 -4.2609,-3.9822 -5.8973,-6.2377 -1.7038,-2.3481 -3.0594,-4.8744 -4.0868,-7.5243 -0.5954,-1.5358 -1.0773,-3.1068 -1.4494,-4.7015 -0.3789,-1.6237 -0.6463,-3.2824 -0.8061,-4.9634 -0.1611,-1.6951 -0.2139,-3.3979 -0.1627,-5.0962 0.0521,-1.7289 0.2104,-3.4465 0.4703,-5.1409 0.2516,-1.6422 0.6014,-3.2909 1.0443,-4.9343 0.4432,-1.6451 0.9826,-3.2891 1.6131,-4.9207 0.6176,-1.5988 1.3235,-3.1761 2.1129,-4.72 0.7861,-1.5376 1.6532,-3.0391 2.5971,-4.4932 0.7591,-1.1696 1.5644,-2.3066 2.4133,-3.4046 0.7413,-0.9591 1.5158,-1.8883 2.3201,-2.783 -0.2328,-0.1458 -0.4639,-0.2968 -0.6924,-0.4518 -0.3716,-0.2518 -0.7238,-0.5071 -1.0568,-0.7641 -0.9323,-0.7202 -1.7502,-1.4861 -2.4564,-2.2791 -0.7417,-0.8329 -1.3654,-1.7025 -1.8739,-2.587 -0.6016,-1.046 -1.0394,-2.1096 -1.3208,-3.1631 -0.2921,-1.0942 -0.4179,-2.1831 -0.3856,-3.236 l 0.0165,-0.544 c 0.0342,-1.2474 0.495,-2.3821 1.2384,-3.2678 0.755,-0.8993 1.8032,-1.5433 2.9939,-1.7892 l 0.0183,-0.006 0.007,-10e-4 3e-4,10e-4 0.5227,-0.1074 c 1.1455,-0.2353 2.2754,-0.398 3.3887,-0.4905 1.1266,-0.0934 2.2485,-0.116 3.3644,-0.0701 1.1504,0.0474 2.2781,0.1646 3.3824,0.3485 1.1214,0.1868 2.2207,0.4424 3.2969,0.7638 0.3636,0.1085 0.7234,0.224 1.0781,0.3459 0.2305,0.0793 0.4686,0.1651 0.7142,0.2572 0.1482,-0.3097 0.3078,-0.6114 0.4774,-0.9047 0.2382,-0.4122 0.4992,-0.8102 0.7776,-1.1918 0.2642,-0.3618 0.5316,-0.696 0.7994,-1.0019 0.2825,-0.3229 0.5671,-0.6174 0.8502,-0.8836 0.3189,-0.3 0.6447,-0.5789 0.9726,-0.8356 0.3431,-0.2684 0.6802,-0.5069 1.007,-0.7143 0.3258,-0.2069 0.666,-0.3996 1.0152,-0.5768 0.3534,-0.1791 0.7126,-0.3402 1.0724,-0.4816 0.3812,-0.1501 0.7751,-0.2778 1.1747,-0.3816 0.4001,-0.1038 0.804,-0.1831 1.2053,-0.2362 0.7557,-0.1006 1.4985,-0.1029 2.2134,-0.0056 0.7123,0.0971 1.3971,0.2928 2.0393,0.5884 0.0856,0.0394 0.1719,0.0824 0.258,0.1278 0.0809,0.0428 0.1641,0.0898 0.2487,0.1401 0.699,0.3911 1.3117,0.8869 1.8236,1.4886 0.5008,0.5886 0.9022,1.2741 1.1903,2.0573 0.4396,1.1952 0.612,2.1892 0.6324,3.0776 0.0154,0.6785 -0.0584,1.2881 -0.1696,1.8759 0.1743,-0.01 0.3518,-0.0184 0.5329,-0.0253 0.378,-0.0146 0.7315,-0.022 1.0627,-0.022 h 0.4101 v 0.0235 c 0.2238,0.003 0.4446,0.008 0.6631,0.0161 0.1829,0.007 0.3619,0.0144 0.5373,0.0236 -0.0145,-0.0881 -0.0281,-0.1791 -0.0409,-0.2738 -0.0394,-0.2899 -0.0702,-0.6104 -0.0876,-0.9779 -0.0275,-0.5756 -0.009,-1.166 0.0799,-1.7805 0.0888,-0.617 0.2467,-1.2594 0.4961,-1.9372 0.3243,-0.8828 0.7871,-1.6385 1.3688,-2.2688 0.5987,-0.6488 1.3232,-1.1631 2.1519,-1.5443 l -3e-4,-7e-4 c 0.0776,-0.0357 0.1681,-0.0741 0.2685,-0.114 v -0.0016 c 0.0734,-0.0291 0.1605,-0.0606 0.2602,-0.0942 l -10e-5,-6e-4 c 0.5743,-0.2112 1.179,-0.3475 1.804,-0.4098 0.6248,-0.062 1.2684,-0.0492 1.9203,0.0374 0.4009,0.0531 0.8046,0.1324 1.2046,0.2362 0.3998,0.1038 0.794,0.2316 1.1757,0.3816 0.3602,0.1417 0.7198,0.303 1.0732,0.4821 0.3487,0.177 0.6888,0.3698 1.0139,0.5763 0.3263,0.207 0.663,0.4451 1.006,0.7136 0.3279,0.2566 0.654,0.5358 0.9736,0.8361 0.283,0.2661 0.5676,0.5607 0.8502,0.8836 0.2679,0.3059 0.5355,0.6401 0.7999,1.0021 0.2786,0.3818 0.5394,0.7798 0.7776,1.192 0.1695,0.2933 0.3291,0.595 0.477,0.9044 0.2451,-0.092 0.4828,-0.1775 0.7128,-0.2566 0.3553,-0.122 0.7158,-0.2379 1.0799,-0.3464 1.076,-0.3213 2.1754,-0.577 3.297,-0.7638 1.1042,-0.1839 2.2317,-0.3011 3.382,-0.3485 1.1158,-0.0459 2.2377,-0.0233 3.3644,0.0701 1.1132,0.0925 2.2432,0.2552 3.3887,0.4905 l 0.5313,0.1092 c 1.2465,0.2543 2.3011,0.9247 3.0477,1.8363 0.7577,0.9249 1.1995,2.1011 1.2044,3.3448 h 2e-4 l 0.0129,0.4237 c 0.0323,1.0527 -0.0935,2.1416 -0.3855,3.2356 -0.2813,1.0535 -0.719,2.1172 -1.3205,3.1632 -0.5084,0.8845 -1.1323,1.7543 -1.8739,2.5871 -0.7064,0.7934 -1.5244,1.5593 -2.4565,2.2793 -0.3335,0.2575 -0.6867,0.5135 -1.0592,0.7659 -0.23,0.1559 -0.4623,0.3074 -0.6965,0.4541 0.115,0.1278 0.2201,0.2457 0.3133,0.3514 l -10e-4,8e-4 c 1.0594,1.2005 2.0502,2.4371 2.9694,3.7005 0.9314,1.2808 1.795,2.5961 2.5868,3.9375 0.1198,0.2031 0.2469,0.4222 0.3813,0.6581 0.1604,-0.2992 0.3494,-0.5837 0.5648,-0.8487 0.3898,-0.4799 0.865,-0.8951 1.4101,-1.2183 l 8.735,-5.8469 c 1.2196,-0.8169 2.6545,-1.0625 3.9874,-0.799 1.3342,0.2637 2.5682,1.0371 3.3851,2.2567 0.243,0.3629 0.4355,0.745 0.5788,1.137 0.1002,0.2745 0.1766,0.5547 0.2298,0.8373 l 0.0205,-0.002 0.0456,0.402 0.8476,7.4735 3.9501,-3.0838 c 0.6293,-0.4916 1.335,-0.8192 2.0642,-0.9887 0.6133,-0.1425 1.2446,-0.1732 1.8627,-0.0961 l 0.4693,-3.2958 c 0.2069,-1.4538 0.9846,-2.6874 2.0742,-3.5054 1.0896,-0.8181 2.4909,-1.2206 3.9447,-1.0138 0.4227,0.0601 0.8299,0.1703 1.2156,0.3232 0.3973,0.1573 0.7669,0.3588 1.1028,0.5961 l 4.7464,2.9921 c 0.3555,-0.5821 0.8187,-1.0886 1.3602,-1.4935 0.6536,-0.4884 1.4221,-0.8296 2.2534,-0.9766 v 5e-4 l 6.8433,-1.5345 c 1.432,-0.3218 2.8588,-0.0329 4.0078,0.694 1.1498,0.7273 2.0225,1.8939 2.3444,3.3255 0.071,0.3156 0.1123,0.6326 0.1256,0.9469 0.008,0.1812 0.006,0.3614 -0.004,0.5392 l 0.0187,0.002 -0.0568,0.4069 -0.1775,1.2721 2.748,0.5913 c 0.9416,0.1994 1.7733,0.6384 2.4441,1.2397 0.4203,0.3766 0.7769,0.8164 1.0578,1.3004 l -0.7694,-4.1745 c -0.2646,-1.4435 0.0812,-2.8577 0.8537,-3.977 0.7723,-1.1189 1.9723,-1.9441 3.4156,-2.2084 0.5036,-0.0923 1.0039,-0.11 1.4887,-0.0616 0.3638,0.0365 0.7192,0.1102 1.061,0.2178 l 0.007,-0.0179 0.3796,0.1534 25.7479,10.4115 c 0.1841,0.0738 0.3576,0.1542 0.5187,0.2398 l -3e-4,7e-4 c 0.0725,0.0384 0.1445,0.0791 0.2161,0.1217 0.2091,-0.1831 0.4229,-0.3573 0.6401,-0.5218 0.2126,-0.1611 0.4307,-0.3147 0.6537,-0.4603 -0.2712,-0.8426 -0.3276,-1.7422 -0.166,-2.6113 0.1766,-0.9503 0.6138,-1.8637 1.315,-2.6257 0.3426,-0.3724 0.7275,-0.6856 1.1397,-0.9377 0.4244,-0.2597 0.88,-0.4551 1.3505,-0.5855 l -2e-4,-5e-4 9.6551,-2.7418 c 1.0848,-0.3042 2.1865,-0.2484 3.1769,0.0954 1.02,0.354 1.9215,1.0132 2.5655,1.8987 l 3.7214,4.5877 2.2533,-4.4086 c 0.4295,-0.8405 1.0519,-1.5179 1.7852,-2.0051 0.6451,-0.4286 1.3766,-0.711 2.1385,-0.8283 l -0.002,-0.0298 0.4106,-0.0315 6.0407,-0.4623 h 0.002 c 1.0775,-0.08 2.1057,0.1675 2.9853,0.6587 0.8466,0.4727 1.5555,1.1717 2.0391,2.0207 z m -136.8468,4.5827 7e-4,-4e-4"
       style="fill:#ffffff;fill-rule:evenodd"
       id="path5" />
    <g
       id="Layer1001">
      <path
         d="m 473.9604,117.1245 c 3.9549,-0.7496 6.8763,-2.0893 8.8869,-3.6424 2.0067,-1.5504 3.0873,-3.2961 3.3689,-4.8495 -3.0826,0.9887 -5.8841,2.0869 -8.2616,3.3487 -2.2895,1.2155 -4.1742,2.5776 -5.5218,4.1349 0.518,0.3249 1.0269,0.6608 1.5276,1.0083 z"
         style="fill:#ffd0c0;fill-rule:evenodd"
         id="path6" />
      <path
         d="m 435.0999,116.1163 c -1.3471,-1.5569 -3.2321,-2.9195 -5.5216,-4.135 -2.3776,-1.2618 -5.179,-2.36 -8.2616,-3.3487 0.2814,1.5534 1.3622,3.2991 3.3688,4.8495 2.0105,1.5534 4.9317,2.8928 8.8872,3.6424 0.5006,-0.3472 1.0097,-0.6834 1.5272,-1.0082 z"
         style="fill:#ffd0c0;fill-rule:evenodd"
         id="path7" />
      <path
         d="m 441.3565,112.9433 c 1.8221,-0.7214 3.718,-1.3069 5.6814,-1.7387 -2.4113,-3.2847 -2.0117,-4.9647 -1.6458,-6.5028 0.1733,-0.7274 0.3369,-1.4156 0.0273,-2.2567 -0.036,-0.0985 -0.2757,-0.119 -0.6199,-0.0729 -0.4952,0.0657 -1.112,0.3056 -1.7421,0.7064 -0.6503,0.4127 -1.2964,0.9873 -1.8216,1.7064 -1.3271,1.8184 -1.9005,4.6029 0.1207,8.1583 z"
         style="fill:#ffd0c0;fill-rule:evenodd"
         id="path8" />
      <path
         d="m 462.1406,104.7018 c 0.3657,1.5381 0.7656,3.2177 -1.6461,6.5028 1.9635,0.4318 3.8601,1.0172 5.6818,1.7387 2.0213,-3.5554 1.4479,-6.3399 0.1206,-8.1583 -0.5252,-0.7191 -1.1713,-1.2937 -1.8216,-1.7064 -0.6302,-0.4008 -1.2469,-0.6407 -1.742,-0.7064 -0.3443,-0.0461 -0.5839,-0.0256 -0.6198,0.0729 -0.3097,0.8411 -0.146,1.5293 0.0271,2.2567 z"
         style="fill:#ffd0c0;fill-rule:evenodd"
         id="path9" />
      <g
         id="Layer1002">
        <path
           d="m 447.2827,118.588 c -1.7918,-1.0256 -3.7924,-1.0521 -5.0118,-0.1118 -0.9318,0.7182 -1.0661,0.1462 -0.6813,-0.703 0.9731,-2.1484 5.4976,-3.3813 8.2731,-1.3747 2.5724,1.8611 1.3843,4.4574 -2.58,2.1895 z"
           style="fill:#c2272d;fill-rule:evenodd"
           id="path10" />
        <path
           d="m 460.2504,118.588 c 1.7917,-1.0256 3.7923,-1.0521 5.0117,-0.1118 0.9318,0.7182 1.0661,0.1462 0.6813,-0.703 -0.973,-2.1484 -5.4976,-3.3813 -8.2731,-1.3747 -2.5723,1.8611 -1.3843,4.4574 2.5801,2.1895 z"
           style="fill:#c2272d;fill-rule:evenodd"
           id="path11" />
        <path
           d="m 453.7662,156.4871 c -1.1874,-3e-4 -2.3758,0.7068 -3.3139,2.1192 -1.4096,2.1223 -0.235,1.1418 0.7834,0.588 0.7611,-0.4135 1.6489,-0.8354 2.5305,-0.7963 0.8817,-0.0391 1.7695,0.3828 2.5306,0.7963 1.0184,0.5538 2.193,1.5343 0.7834,-0.588 -0.9381,-1.4124 -2.1265,-2.1195 -3.314,-2.1192 z"
           style="fill:#c2272d;fill-rule:evenodd"
           id="path12" />
        <path
           d="m 453.7662,165.8714 c -2.1768,0 -4.3533,-0.6452 -6.2267,-1.9365 -1.4468,-0.9967 -1.3576,-0.5577 -0.3752,0.6951 1.5982,2.0377 4.1001,3.0559 6.6019,3.0559 2.5019,0 5.0038,-1.0182 6.602,-3.0559 0.9824,-1.2528 1.0716,-1.6918 -0.3752,-0.6951 -1.8734,1.2913 -4.05,1.9365 -6.2268,1.9365 z"
           style="fill:#c2272d;fill-rule:evenodd"
           id="path13" />
        <path
           d="m 441.6174,148.4625 c 2.5936,-0.1159 5.2111,1.588 6.4217,4.1271 0.989,2.0741 -0.7358,4.0758 -2.2941,1.5649 -0.8577,-1.3821 -2.0122,-3.0092 -4.3949,-3.6828 -2.7606,-0.7804 -3.122,-1.8578 0.2673,-2.0092 z"
           style="fill:#c2272d;fill-rule:evenodd"
           id="path14" />
        <path
           d="m 465.9151,148.4625 c -2.5936,-0.1159 -5.2111,1.588 -6.4217,4.1271 -0.989,2.0741 0.7358,4.0758 2.2941,1.5649 0.8577,-1.3821 2.0122,-3.0092 4.3949,-3.6828 2.7606,-0.7804 3.122,-1.8578 -0.2673,-2.0092 z"
           style="fill:#c2272d;fill-rule:evenodd"
           id="path15" />
        <g
           id="Layer1003">
          <path
             d="m 432.54,158.9218 c 3.672,2.8421 11.7456,2.3392 7.9931,-0.5649 -3.6717,-2.8418 -11.7455,-2.3392 -7.9931,0.5649 z"
             style="fill:#ffd0c0;fill-rule:evenodd"
             id="path16" />
          <path
             d="m 466.9881,158.3569 c -3.7525,2.9041 4.3211,3.4067 7.9931,0.5649 2.9159,-2.2566 -1.2855,-2.9071 -4.4458,-2.1441 -1.4603,0.3527 -2.7094,0.9307 -3.5473,1.5792 z"
             style="fill:#ffd0c0;fill-rule:evenodd"
             id="path17" />
        </g>
        <path
           d="m 453.7662,111.7309 c -13.2421,0.4709 -24.0328,8.057 -30.5445,18.0898 -0.3441,0.5299 -0.6758,1.067 -0.9956,1.6098 1.2913,0.9502 2.6315,2.2412 3.4504,3.6952 0.9511,1.6879 1.2164,3.5809 -0.01,5.4323 l -0.005,0.005 -0.0647,0.0953 -0.003,0.008 c -0.3551,0.5107 -0.7735,0.9459 -1.1883,1.378 -0.8054,0.8388 -1.6001,1.6662 -1.6378,2.9902 -0.0245,0.8597 0.0487,1.6841 0.1194,2.481 0.1977,2.2274 0.3791,4.2663 -1.3463,6.6028 -1.6218,2.196 -3.5798,2.4231 -4.7549,2.3119 0.3163,2.1686 0.8596,4.2837 1.6444,6.3083 3.097,7.9885 9.9718,14.6 21.5123,17.5792 h 0.003 c 3.5397,0.9139 7.8473,1.4254 12.1742,1.541 4.4304,0.1183 8.8765,-0.1789 12.5347,-0.8833 13.0429,-2.5118 20.768,-9.301 24.2297,-17.6924 0.9029,-2.189 1.5175,-4.4891 1.8622,-6.8528 -1.1749,0.1112 -3.1331,-0.1156 -4.755,-2.3119 -1.7253,-2.3365 -1.5439,-4.3754 -1.3463,-6.6028 0.0708,-0.7969 0.144,-1.6213 0.1195,-2.481 -0.0377,-1.324 -0.8324,-2.1514 -1.6378,-2.9902 -0.4149,-0.4321 -0.8333,-0.8673 -1.1884,-1.378 l -0.003,-0.008 -0.0647,-0.0953 -0.005,-0.005 c -1.2261,-1.8514 -0.9607,-3.7444 -0.01,-5.4323 0.8187,-1.4537 2.1589,-2.7447 3.4499,-3.6947 l -0.0228,-0.0388 c -6.3785,-10.8027 -17.5925,-19.1661 -31.5171,-19.6613 z m -31.6951,17.3428 c 2.6742,-4.1207 6.0501,-7.8421 10.0084,-10.8625 -3.5716,-0.8272 -6.2868,-2.1399 -8.2324,-3.6429 -2.8027,-2.1655 -4.0411,-4.7527 -3.9748,-6.9125 l 0.0165,-0.5439 0.5318,-0.1093 c 3.7731,-0.7746 7.3936,-0.5843 10.8496,0.4476 2.7378,0.8176 5.3699,2.1633 7.8899,3.9748 -1.0595,-3.1204 -0.3391,-5.6555 0.9681,-7.4464 0.6389,-0.8751 1.4157,-1.5679 2.1925,-2.0612 0.7964,-0.5057 1.6133,-0.8142 2.3015,-0.9056 1.0083,-0.1344 1.7989,0.1745 2.0876,0.9604 0.4531,1.2312 0.2431,2.114 0.0212,3.0466 -0.3127,1.3149 -0.6557,2.7571 1.8052,5.8888 3.9927,-0.7067 6.4682,-0.7072 10.4609,-6e-4 2.4606,-3.1314 2.1174,-4.5733 1.8046,-5.8882 -0.2218,-0.9326 -0.4318,-1.8154 0.0212,-3.0466 0.2888,-0.7859 1.0794,-1.0948 2.0877,-0.9604 0.6881,0.0914 1.5051,0.3999 2.3014,0.9056 0.7768,0.4933 1.5536,1.1861 2.1925,2.0612 1.3073,1.7909 2.0276,4.326 0.9681,7.4464 2.5201,-1.8115 5.1522,-3.1572 7.89,-3.9748 3.4559,-1.0319 7.0765,-1.2222 10.8495,-0.4476 l 0.5316,0.1093 0.0168,0.5439 c 0.0663,2.1598 -1.1721,4.747 -3.9749,6.9125 -1.9453,1.503 -4.6607,2.8157 -8.2318,3.6426 4.4706,3.4113 8.1985,7.717 11.012,12.4822 3.0497,5.165 5.0286,10.8724 5.7184,16.5657 0.6917,5.7093 0.0875,11.4106 -2.0309,16.5459 -3.6299,8.7994 -11.682,15.9092 -25.2405,18.5204 -3.746,0.7212 -8.2951,1.0256 -12.8254,0.9048 -4.4282,-0.1181 -8.8451,-0.6438 -12.4857,-1.5839 l 2e-4,-5e-4 c -12.0238,-3.105 -19.2016,-10.0321 -22.4506,-18.4122 -2.0758,-5.3548 -2.5407,-11.292 -1.6356,-17.1948 0.9023,-5.8854 3.168,-11.7458 6.5554,-16.9648 z m 11.5014,-11.9493 c 0.501,-0.3471 1.01,-0.6835 1.5275,-1.008 -1.3472,-1.5569 -3.2322,-2.9197 -5.5219,-4.135 -2.3774,-1.2621 -5.1788,-2.3602 -8.2615,-3.3489 0.2816,1.5536 1.3623,3.2993 3.369,4.8496 2.0105,1.5533 4.9316,2.8928 8.8869,3.6423 z m 7.784,-4.1813 c 1.8222,-0.7212 3.718,-1.3066 5.6814,-1.7385 -2.4113,-3.2848 -2.0116,-4.9647 -1.6458,-6.5029 0.1732,-0.7273 0.337,-1.4154 0.0273,-2.2566 -0.0361,-0.0986 -0.2756,-0.1189 -0.6199,-0.073 -0.4952,0.0658 -1.1118,0.3058 -1.7422,0.7064 -0.6501,0.4129 -1.2962,0.9873 -1.8214,1.7066 -1.3273,1.8184 -1.9007,4.6027 0.1206,8.158 z m 19.1381,-1.7385 c 1.9634,0.4319 3.86,1.0171 5.6817,1.7385 2.0213,-3.5553 1.4479,-6.3396 0.1206,-8.158 -0.5252,-0.7193 -1.1713,-1.2937 -1.8215,-1.7066 -0.6303,-0.4006 -1.2469,-0.6406 -1.7421,-0.7064 -0.3444,-0.0459 -0.5839,-0.0256 -0.6199,0.073 -0.3097,0.8412 -0.1459,1.5293 0.0272,2.2566 0.3659,1.5382 0.7656,3.2178 -1.646,6.5029 z m 11.9382,4.9115 c 0.5178,0.3248 1.0267,0.6609 1.5277,1.0083 3.9548,-0.7495 6.8761,-2.0892 8.8867,-3.6423 2.0067,-1.5503 3.0874,-3.296 3.369,-4.8496 -3.0827,0.9887 -5.8841,2.0868 -8.2616,3.3489 -2.2894,1.2153 -4.1744,2.5775 -5.5218,4.1347 z m -31.7411,11.9072 c 4.1639,-1.0361 7.139,-0.5924 8.7108,0.5461 0.7024,0.509 1.1464,1.1578 1.3177,1.8872 0.169,0.722 0.0635,1.5049 -0.3301,2.291 -0.9139,1.8248 -3.4846,3.7252 -7.885,4.8202 -4.5184,1.1242 -7.4643,0.8109 -8.9854,-0.2081 -0.7427,-0.4977 -1.1751,-1.1594 -1.3125,-1.9164 -0.1318,-0.7261 0.0193,-1.5175 0.4357,-2.3097 1.035,-1.9679 3.824,-4.0594 8.0488,-5.1103 z m 29.9433,15.7303 c 2.0758,-0.7675 4.1186,-2.0808 5.6603,-3.6999 1.0548,-1.1079 1.8705,-2.3538 2.2908,-3.6552 0.4082,-1.264 0.4432,-2.5911 -0.0419,-3.903 -0.3592,-0.9725 -1.0066,-1.9461 -2,-2.8919 -4.478,-4.2639 -13.6141,-6.3964 -22.7777,-6.3964 -9.1638,0 -18.2999,2.1325 -22.7779,6.3964 -0.9934,0.9458 -1.6406,1.9194 -2.0001,2.8916 -0.4853,1.3125 -0.45,2.6393 -0.0418,3.9033 0.4203,1.3017 1.2359,2.5473 2.2907,3.6552 1.5418,1.6191 3.5848,2.9322 5.6603,3.6999 4.118,1.5225 10.4857,2.2844 16.8688,2.2844 6.3829,0 12.7506,-0.7619 16.8685,-2.2844 z m 6.6551,-2.7535 c -0.0875,0.0919 -0.1767,0.183 -0.2672,0.2733 3.345,2.6624 5.6021,5.9895 6.7027,9.5999 1.1886,3.8991 1.0259,8.1192 -0.5731,12.1813 -2.1441,5.4478 -5.9884,9.1944 -10.6619,11.6379 -5.5661,2.9104 -12.3046,3.9581 -18.7241,3.8273 -6.4194,0.1308 -13.1582,-0.9169 -18.7243,-3.8273 -4.6735,-2.4432 -8.5178,-6.1901 -10.6619,-11.6379 -1.599,-4.0621 -1.7617,-8.2822 -0.5731,-12.1813 1.1005,-3.6104 3.3577,-6.9375 6.7027,-9.5999 -0.0905,-0.0903 -0.1797,-0.1814 -0.2673,-0.2733 -1.1891,-1.2492 -2.1146,-2.6723 -2.6023,-4.1821 -0.4999,-1.5473 -0.5406,-3.1768 0.0578,-4.7957 0.4302,-1.1635 1.1894,-2.3141 2.3441,-3.4135 4.7453,-4.5182 14.2491,-6.7779 23.7243,-6.7779 9.4749,0 18.9787,2.2597 23.724,6.7779 1.1548,1.0994 1.9142,2.25 2.3442,3.4138 0.5984,1.6183 0.5577,3.2481 0.0578,4.7954 -0.4878,1.5095 -1.4132,2.9329 -2.6024,4.1821 z m -1.2962,1.2095 c -1.4594,1.2142 -3.1631,2.1974 -4.8859,2.8344 -4.2727,1.5798 -10.8155,2.3703 -17.3415,2.3703 -6.5265,0 -13.069,-0.7905 -17.3417,-2.3703 -1.7231,-0.6372 -3.4268,-1.6199 -4.8859,-2.8344 -3.2184,2.5079 -5.3809,5.6531 -6.4198,9.0617 -1.098,3.6027 -0.9441,7.5115 0.5406,11.2834 2.0106,5.1084 5.6226,8.6257 10.0167,10.9228 5.3462,2.7951 11.8573,3.7995 18.0766,3.6712 h 0.027 c 6.2194,0.1283 12.7302,-0.8761 18.0764,-3.6712 4.3938,-2.2973 8.0061,-5.8144 10.0166,-10.9228 1.4848,-3.7719 1.6387,-7.6807 0.5406,-11.2834 -1.0388,-3.4086 -3.2013,-6.5538 -6.4197,-9.0617 z m -17.8636,-13.6402 c 1.5718,-1.1385 4.5468,-1.5822 8.7108,-0.5461 4.2247,1.0509 7.0137,3.1424 8.0487,5.1103 0.4168,0.7925 0.5676,1.5836 0.4358,2.3097 -0.1374,0.757 -0.5698,1.4187 -1.3125,1.9164 -1.5208,1.019 -4.467,1.3323 -8.9855,0.2081 -4.4004,-1.095 -6.9711,-2.9954 -7.885,-4.8202 -0.3936,-0.7861 -0.499,-1.569 -0.33,-2.291 0.1712,-0.7294 0.6155,-1.3785 1.3177,-1.8872 z"
           style="fill:#c2272d;fill-rule:evenodd"
           id="path18" />
      </g>
      <g
         id="Layer1004">
        <path
           d="m 508.0039,149.5774 15.7872,12.1816 5.2719,-5.3157 -19.7647,-11.0269 12.8439,-6.6787 -3.6897,-5.5997 -11.4378,8.9292 -1.919,-16.9223 -8.9751,6.0079 8.0329,28.6261 5.2122,0.7071 z"
           style="fill:#c2272d;fill-rule:evenodd"
           id="path19" />
        <path
           d="m 524.8484,125.3209 -3.5667,25.0517 2.5729,1.4692 0.4305,0.2458 11.6352,6.1965 1.7077,-7.291 -10.937,-4.133 4.9132,-17.2805 z"
           style="fill:#c2272d;fill-rule:evenodd"
           id="path20" />
        <path
           d="m 537.2071,126.732 -1.2407,20.8038 4.6703,3.7781 3.65,-26.169 z"
           style="fill:#c2272d;fill-rule:evenodd"
           id="path21" />
        <path
           d="m 546.3863,131.946 -4.6366,28.353 6.2616,-2.4873 1.3092,-15.9523 2.8327,13.1775 4.5143,0.2773 6.7366,-9.8693 -0.1957,19.4192 8.2969,4.6255 -3.7709,-32.0426 -5.1576,-1.0808 -6.7728,11.0291 -4.7823,-14.4515 z"
           style="fill:#c2272d;fill-rule:evenodd"
           id="path22" />
        <path
           d="m 587.1046,139.2972 -1.2706,-3.7408 -25.7484,-10.4116 1.3986,7.5889 7.3288,2.1189 6.0174,18.2251 -3.6581,1.1261 1.6248,9.175 16.34,-15.1624 -1.156,-3.7645 -6.7304,-2.3375 z m -12.2765,-3.5597 5.0733,1.7617 -4.0685,1.958 z m 2.4292,8.9929 6.4922,2.2547 -4.9671,3.393 z"
           style="fill:#c2272d;fill-rule:evenodd"
           id="path23" />
        <path
           d="m 590.6686,136.6566 c -2.0647,3.7506 -1.897,9.5985 -0.3586,14.0764 2.4008,6.9898 8.0948,8.717 12.2973,2.819 3.4747,-4.8773 3.0339,-13.5216 -0.8715,-17.7066 -3.0985,-3.3207 -8.5699,-3.3858 -11.0672,0.8112 z m 5.0087,9.5088 c -3.2542,-6.5966 1.1507,-13.0313 4.1922,-7.4203 4.3149,7.956 -1.726,12.4198 -4.1922,7.4203 z"
           style="fill:#c2272d;fill-rule:evenodd"
           id="path24" />
        <path
           d="m 594.9052,128.3666 15.6299,14.4171 -11.7267,18.63 5.2841,5.7862 21.5276,-42.575 -6.0408,0.4625 -5.9679,11.6774 -9.0394,-11.1432 z"
           style="fill:#c2272d;fill-rule:evenodd"
           id="path25" />
        <path
           d="m 624.5743,144.7075 12.7869,-16.1606 -10.0998,-1.6546 -11.1881,20.402 3.4567,4.8724 7.4501,-2.1488 -10.1033,11.741 h 7.4499 l 15.4118,-15.2305 -2.6229,-4.6632 z"
           style="fill:#c2272d;fill-rule:evenodd"
           id="path26" />
      </g>
    </g>
  </g>
</svg>
