<?xml version="1.0" encoding="UTF-8" standalone="no"?>
<svg
   version="1.1"
   width="2.6086068in"
   height="4.463748in"
   viewBox="0 0 187.81961 321.38972"
   id="svg106"
   sodipodi:docname="KLIMBOYS_LOGO_CDR.svg"
   inkscape:version="1.3.2 (091e20e, 2023-11-25, custom)"
   xmlns:inkscape="http://www.inkscape.org/namespaces/inkscape"
   xmlns:sodipodi="http://sodipodi.sourceforge.net/DTD/sodipodi-0.dtd"
   xmlns="http://www.w3.org/2000/svg"
   xmlns:svg="http://www.w3.org/2000/svg">
  <defs
     id="defs106" />
  <sodipodi:namedview
     id="namedview106"
     pagecolor="#ffffff"
     bordercolor="#000000"
     borderopacity="0.25"
     inkscape:showpageshadow="2"
     inkscape:pageopacity="0.0"
     inkscape:pagecheckerboard="0"
     inkscape:deskcolor="#d1d1d1"
     inkscape:document-units="in"
     inkscape:zoom="2.318721"
     inkscape:cx="168.84308"
     inkscape:cy="765.2926"
     inkscape:window-width="1920"
     inkscape:window-height="1001"
     inkscape:window-x="-9"
     inkscape:window-y="-9"
     inkscape:window-maximized="1"
     inkscape:current-layer="svg106" />
  <g
     id="Layer1014"
     transform="translate(-105.62557,-91.252846)">
    <g
       id="Layer1015"
       inkscape:export-filename="klimboys-maskot.svg"
       inkscape:export-xdpi="96"
       inkscape:export-ydpi="96">
      <path
         d="m 199.533,200.0626 c -15.3719,0 -30.7577,-1.8421 -40.7165,-5.5242 -4.9722,-1.8388 -10.0468,-5.0693 -13.8605,-9.0755 -2.5231,-2.65 -4.5027,-5.6445 -5.546,-8.8063 -1.0553,-3.1982 -1.1597,-6.5656 0.0806,-9.9211 0.894,-2.42 2.4901,-4.8287 4.9318,-7.1534 10.8726,-10.3522 33.0058,-15.528 55.1133,-15.528 22.1074,0 44.2406,5.1765 55.1125,15.528 2.4418,2.3254 4.0379,4.7348 4.9325,7.154 1.2403,3.3562 1.1352,6.7243 0.0793,9.9212 -1.0434,3.1617 -3.0229,6.1563 -5.546,8.8063 -3.8144,4.0061 -8.8877,7.2367 -13.8598,9.0748 -9.9595,3.6821 -25.3479,5.5242 -40.7212,5.5242 z m -9.1938,-31.6986 c 1.286,-1.9188 1.8222,-4.0008 1.3118,-6.1795 l 10e-4,-6e-4 -0.0238,-0.0992 h -6e-4 c -0.8351,-3.3575 -3.8647,-5.3199 -7.9475,-6.1576 -4.2144,-0.8649 -9.5303,-0.5363 -14.7663,0.6902 l -6e-4,-0.001 -0.6447,0.1554 v 7e-4 c -6.479,1.6113 -11.5966,4.3089 -15.0539,7.3398 -2.2143,1.9406 -3.7397,4.0127 -4.4934,6.0089 -0.73,1.9326 -0.7326,3.7945 0.0687,5.3893 0.4953,0.9852 1.3019,1.8811 2.4358,2.6408 3.9619,2.6546 11.9583,2.6388 19.8363,0.7921 4.0703,-0.9535 8.0956,-2.3975 11.5066,-4.2124 3.3807,-1.7991 6.1583,-3.9612 7.7703,-6.3666 z m 37.6691,10.579 c 7.8781,1.846 15.8738,1.8625 19.8363,-0.7921 1.6166,-1.0837 2.5489,-2.4953 2.8702,-4.0485 v -0.002 c 0.3478,-1.6747 -0.003,-3.5353 -0.9561,-5.347 -0.2849,-0.5421 -0.6195,-1.0757 -0.9964,-1.5961 -3.4342,-4.7413 -10.4071,-8.4407 -17.6986,-10.3469 -7.2823,-1.9035 -14.8476,-2.0113 -19.4806,0.4245 -0.4344,0.2281 -0.8443,0.4813 -1.2238,0.7557 -0.7868,0.57 -1.4275,1.2146 -1.9161,1.9142 -0.49,0.7015 -0.8331,1.4678 -1.0236,2.2797 -0.5104,2.1787 0.0258,4.2607 1.3118,6.1795 1.6113,2.4047 4.3897,4.5668 7.7703,6.3666 3.4111,1.8149 7.4364,3.2589 11.5066,4.2124 z"
         style="fill:#ffffff;fill-rule:evenodd"
         id="path82" />
      <path
         d="m 221.2001,287.2586 c 2.6791,-0.4073 5.271,-0.8834 7.7736,-1.4236 l 0.1844,0.0318 0.5647,0.3471 0.3134,0.1931 -0.2936,0.2221 c -2.1316,1.6146 -3.4798,3.4924 -4.1185,5.4171 -0.6083,1.8328 -0.5772,3.7133 0.0258,5.4528 0.6043,1.7436 1.7858,3.3496 3.4739,4.6277 2.1316,1.6139 5.0739,2.7075 8.6866,2.9032 2.5568,0.1382 3.3906,1.4838 4.3817,3.0838 1.0784,1.7403 2.3585,3.8052 6.52,4.8062 2.855,0.6863 5.1566,0.2565 6.9471,-0.6083 1.7938,-0.8668 3.0857,-2.1733 3.9135,-3.2332 l 0.168,-0.2149 0.201,0.1858 c 0.9818,0.9105 1.9584,1.8374 2.9251,2.777 0.9613,0.9336 1.9141,1.8817 2.8556,2.8404 0.1871,0.1898 0.4186,0.3168 0.6605,0.3763 0.2506,0.0614 0.5178,0.0522 0.7644,-0.0271 l 0.007,-0.002 c 3.415,-0.9925 7.0608,-1.5115 10.415,-1.6517 3.7635,-0.1573 7.1712,0.162 9.4867,0.8245 0.5554,0.1587 1.0262,0.3273 1.3918,0.4986 0.3789,0.1772 0.6546,0.3656 0.81,0.56 l 6e-4,0.002 c 0.1296,0.1659 0.1832,0.236 -0.0436,0.3874 -0.0926,0.0622 -0.1918,0.0503 -0.2823,-0.004 -0.6407,0.6109 -1.8157,1.2774 -3.624,1.9809 -1.7436,0.6783 -4.0908,1.401 -7.1342,2.1528 -0.3286,0.0807 -0.5885,0.2618 -0.7663,0.4919 -0.166,0.2156 -0.2658,0.4761 -0.2903,0.7425 -0.0238,0.2665 0.0265,0.5409 0.1561,0.7835 0.1388,0.2592 0.3735,0.488 0.7101,0.6354 l 0.007,0.003 c 3.3919,1.5967 6.0102,3.0904 7.9481,4.4326 2.2196,1.5379 3.5631,2.892 4.1701,3.9916 v 6e-4 l 0.0198,0.0357 c 0.1396,0.2533 0.2447,0.4417 0.2698,0.6169 0.0615,0.4357 -0.2169,0.6143 -1.1749,0.7524 -1.3369,0.1931 -3.2669,-0.0376 -5.628,-0.7848 -2.0748,-0.6565 -4.4948,-1.7171 -7.1521,-3.2431 -0.3762,-0.2162 -0.7623,-0.238 -1.0949,-0.1316 -0.2367,0.0761 -0.451,0.2175 -0.6189,0.4 -0.1673,0.1825 -0.2916,0.4073 -0.3478,0.65 -0.08,0.3431 -0.0264,0.7266 0.2189,1.083 0.8589,1.2457 1.6133,2.4801 2.2665,3.6769 0.7002,1.2833 1.2834,2.5231 1.7541,3.6914 0.484,1.202 1.0692,3.171 1.3879,4.8313 0.2585,1.3468 0.3378,2.5191 0.0496,2.9859 l -0.0576,0.0925 -0.1051,0.0219 c -0.4238,0.0886 -1.0486,-0.1766 -1.7951,-0.7187 -0.7293,-0.529 -1.604,-1.3343 -2.5403,-2.3327 -1.1597,-1.2364 -2.336,-2.7598 -3.4077,-4.4591 -0.9945,-1.5769 -1.901,-3.3052 -2.6236,-5.097 -0.2493,-0.5964 -0.611,-0.9264 -0.9898,-1.0546 -0.2255,-0.0761 -0.4635,-0.0814 -0.687,-0.0305 -0.2261,0.0516 -0.4403,0.1634 -0.6182,0.3181 h -7e-4 c -0.3028,0.2631 -0.5018,0.6546 -0.4879,1.0976 0.0952,2.8206 -0.0575,5.2055 -0.3835,7.1156 -0.3623,2.1211 -0.9442,3.6723 -1.6444,4.6012 -0.3464,0.4596 -0.6175,0.6857 -0.9534,0.6599 -0.3121,-0.0238 -0.609,-0.2817 -1.0189,-0.7901 -0.9257,-1.1465 -1.8011,-3.175 -2.4828,-6.1649 -0.5983,-2.6223 -1.0532,-5.9983 -1.2694,-10.183 -0.0139,-0.2743 -0.1078,-0.5282 -0.2559,-0.7372 -0.1528,-0.2155 -0.367,-0.3861 -0.6143,-0.486 l -21.4753,-8.7646 -0.1355,-0.1343 c -1.0659,-2.4602 -2.2302,-4.8835 -3.4931,-7.2605 -1.2358,-2.3267 -2.5641,-4.6005 -3.9843,-6.8095 -0.357,-0.5567 -0.8886,-0.7181 -1.374,-0.6248 -0.193,0.037 -0.3815,0.1144 -0.5481,0.2215 -0.1673,0.1071 -0.3154,0.2466 -0.4291,0.4059 -0.2863,0.402 -0.3597,0.9521 -0.003,1.5089 2.3359,3.6345 4.4094,7.435 6.2323,11.3651 1.8837,4.063 3.5017,8.2662 4.8683,12.5718 l 0.0655,0.207 -0.1951,0.0952 c -8.8856,4.3413 -7.1745,11.4788 -5.9764,16.4754 0.4476,1.8692 0.8265,3.4501 0.5812,4.5358 -1.335,5.9063 -1.8104,10.8804 -0.2863,14.4231 1.5081,3.5076 5.0144,5.632 11.6487,5.8978 l 0.2407,0.01 7e-4,0.2413 c 6e-4,0.8708 -0.007,1.7442 -0.0192,2.6143 -0.0126,0.8708 -0.0331,1.7396 -0.0588,2.6031 -0.008,0.3055 0.0833,0.5931 0.2433,0.8272 0.164,0.2393 0.404,0.4271 0.6843,0.5263 l 0.005,0.002 c 5.3265,2.0358 9.9885,5.2048 13.2118,8.7541 2.2143,2.4384 3.7542,5.0633 4.3711,7.6294 0.6222,2.5919 0.3068,5.1249 -1.1987,7.3498 -0.9971,1.4737 -2.5178,2.8113 -4.6316,3.9367 -3.421,1.8209 -12.6373,3.4414 -20.9378,3.7079 -6.6925,0.2142 -12.8184,-0.4556 -14.9065,-2.6117 -3.2067,-3.3112 -6.5649,-17.7072 -8.8162,-27.3605 -0.2982,-1.2788 -0.5766,-2.4716 -0.8516,-3.626 l -0.0602,-0.2493 0.2532,-0.0548 c 1.6788,-0.3604 3.2961,-0.8014 4.8426,-1.327 1.5478,-0.527 3.0275,-1.1406 4.4279,-1.8441 0.5892,-0.2962 0.8054,-0.8073 0.763,-1.2992 -0.0165,-0.1971 -0.0747,-0.3928 -0.1626,-0.5686 -0.0893,-0.1772 -0.2123,-0.3399 -0.3597,-0.4701 -0.3696,-0.326 -0.9091,-0.4563 -1.4996,-0.1587 -1.8394,0.9263 -3.4104,1.5339 -5.025,2.0139 -1.6053,0.4774 -3.2656,0.8338 -5.2842,1.2589 -4.418,0.931 -9.8325,1.1108 -15.1405,0.5118 -4.99,-0.564 -9.8953,-1.8183 -13.8003,-3.7846 -0.5904,-0.2976 -1.13,-0.1673 -1.4996,0.1587 -0.1474,0.1309 -0.271,0.2935 -0.3603,0.4707 -0.0879,0.1759 -0.1455,0.3716 -0.162,0.5686 -0.0423,0.4913 0.1732,1.0017 0.763,1.2986 1.4017,0.7042 2.8801,1.3171 4.428,1.8441 1.5465,0.5256 3.1644,0.9666 4.8425,1.327 l 0.2526,0.0548 -0.0595,0.2493 c -0.2751,1.1544 -0.5534,2.3472 -0.8516,3.626 -2.2514,9.6533 -5.6095,24.0493 -8.8163,27.3605 -2.088,2.1561 -8.2139,2.8259 -14.9064,2.6117 -8.3006,-0.2665 -17.5169,-1.887 -20.9378,-3.7079 -2.1139,-1.1254 -3.6346,-2.4623 -4.6323,-3.9367 -1.5049,-2.2256 -1.8203,-4.7579 -1.1981,-7.3498 0.6169,-2.5667 2.1575,-5.1903 4.3718,-7.6294 3.2233,-3.5493 7.8846,-6.7183 13.2111,-8.7541 l 0.005,-0.002 c 0.2804,-0.0992 0.5204,-0.287 0.6844,-0.5263 0.16,-0.2341 0.2512,-0.5217 0.2433,-0.8272 -0.0258,-0.8681 -0.0463,-1.7422 -0.0595,-2.6189 -0.0126,-0.8642 -0.0192,-1.733 -0.0185,-2.5985 v -0.2413 l 0.2413,-0.01 c 6.635,-0.2658 10.1413,-2.3902 11.6494,-5.8978 1.5228,-3.542 1.0487,-8.5168 -0.2869,-14.4231 -0.2453,-1.0857 0.1335,-2.6673 0.5818,-4.5358 1.1981,-4.9966 2.9093,-12.1341 -5.9771,-16.4754 l -0.195,-0.0946 0.0661,-0.2076 c 1.368,-4.309 2.9866,-8.5134 4.8696,-12.5744 1.8222,-3.9295 3.8951,-7.7293 6.2304,-11.3625 0.357,-0.5561 0.2843,-1.1062 -0.003,-1.5082 -0.1137,-0.1594 -0.2618,-0.2989 -0.4291,-0.406 -0.1673,-0.1071 -0.355,-0.1851 -0.5481,-0.2221 -0.4853,-0.0933 -1.0162,0.0681 -1.374,0.6248 -1.4208,2.209 -2.7485,4.4815 -3.9843,6.8082 -1.2628,2.377 -2.4272,4.8016 -3.493,7.2618 l -0.1356,0.1343 -21.476,8.7627 -6e-4,-7e-4 c -0.246,0.1012 -0.4602,0.2724 -0.6136,0.4886 -0.1474,0.2083 -0.2413,0.4629 -0.2552,0.7372 -0.2162,4.1847 -0.6711,7.5607 -1.2695,10.183 -0.6817,2.9899 -1.5571,5.0184 -2.4828,6.1649 -0.4092,0.5078 -0.7068,0.7663 -1.0182,0.7908 h -0.001 c -0.3359,0.0258 -0.6063,-0.201 -0.9528,-0.6606 v -6e-4 c -0.6995,-0.9297 -1.282,-2.4801 -1.6443,-4.6006 -0.326,-1.9108 -0.4781,-4.295 -0.3822,-7.1156 0.0145,-0.4781 -0.1812,-0.853 -0.4754,-1.0963 -0.1832,-0.1514 -0.406,-0.2559 -0.6387,-0.3041 -0.2327,-0.0483 -0.4787,-0.0424 -0.7068,0.0238 -0.3643,0.1064 -0.6936,0.3715 -0.8708,0.8185 -0.7339,1.846 -1.6523,3.6207 -2.6646,5.2393 l 7e-4,6e-4 c -1.0784,1.7231 -2.2679,3.2716 -3.4607,4.5437 -0.9362,0.9984 -1.811,1.8037 -2.5403,2.3327 -0.7464,0.5421 -1.3713,0.8073 -1.7951,0.7187 l -0.1064,-0.0219 -0.0562,-0.0912 c -0.078,-0.1256 -0.1243,-0.3689 -0.1369,-0.7128 -0.0106,-0.3107 7e-4,-0.7213 0.0351,-1.2139 0.1335,-1.8969 0.763,-4.0524 1.6661,-6.2026 1.0441,-2.4854 2.4583,-4.9741 3.8951,-7.0562 0.2446,-0.3564 0.2975,-0.7418 0.2175,-1.0837 -0.0562,-0.2433 -0.1805,-0.4687 -0.3484,-0.6512 -0.168,-0.1825 -0.3822,-0.3247 -0.6189,-0.4 h -7e-4 c -0.3325,-0.1065 -0.718,-0.084 -1.0936,0.1322 -2.6573,1.526 -5.0772,2.5866 -7.152,3.2431 -2.3611,0.7472 -4.2911,0.9779 -5.628,0.7848 -0.9588,-0.1381 -1.2378,-0.3167 -1.175,-0.7524 v -6e-4 c 0.0252,-0.1746 0.1296,-0.3617 0.2678,-0.6123 l -6e-4,-7e-4 0.0211,-0.039 10e-4,-6e-4 c 0.607,-1.0996 1.9505,-2.4537 4.1701,-3.9916 1.938,-1.3422 4.5563,-2.8359 7.9482,-4.4326 l 0.006,-0.003 c 0.3359,-0.1474 0.5719,-0.3762 0.7108,-0.6354 0.1296,-0.2426 0.1805,-0.517 0.156,-0.7835 -0.0238,-0.2658 -0.1236,-0.5276 -0.2902,-0.7425 -0.1779,-0.2301 -0.4377,-0.4112 -0.7663,-0.4919 -3.0435,-0.7518 -5.3907,-1.4745 -7.1342,-2.1528 -1.8077,-0.7035 -2.9813,-1.3693 -3.6227,-1.9803 -0.1051,0.0694 -0.205,0.088 -0.322,-0.0291 l 7e-4,-6e-4 c -0.0807,-0.0787 -0.1204,-0.2156 -0.003,-0.3591 0.156,-0.193 0.4311,-0.3808 0.8079,-0.5573 0.3657,-0.1713 0.8364,-0.3399 1.3918,-0.4986 2.3155,-0.6625 5.7233,-0.9818 9.4867,-0.8245 3.3542,0.1402 7,0.6592 10.4151,1.6517 l 0.007,0.002 c 0.2466,0.0793 0.5137,0.0885 0.7643,0.0271 0.242,-0.0595 0.4734,-0.1865 0.6605,-0.3763 0.9429,-0.96 1.897,-1.9095 2.859,-2.8444 0.9666,-0.9382 1.9412,-1.8639 2.9218,-2.773 l 0.2003,-0.1858 0.1686,0.2149 c 0.8285,1.0599 2.1198,2.3664 3.9136,3.2332 1.7911,0.8648 4.0934,1.2939 6.9471,0.6083 4.1615,-1.001 5.4415,-3.0653 6.5199,-4.8055 0.9918,-1.6007 1.8262,-2.9463 4.3817,-3.0845 3.6127,-0.1957 6.555,-1.2893 8.6867,-2.9032 1.688,-1.2781 2.8695,-2.8841 3.4739,-4.6277 0.603,-1.7389 0.634,-3.6206 0.0257,-5.4528 -0.6387,-1.9247 -1.9862,-3.8025 -4.1185,-5.4171 l -0.2942,-0.2221 0.3141,-0.1931 0.5646,-0.3471 0.1845,-0.0318 c 2.5039,0.5402 5.0971,1.0169 7.7775,1.4242 2.6461,0.4014 5.3596,0.7353 8.1399,0.9958 0.6559,0.0602 1.1088,-0.2579 1.3323,-0.6962 0.0892,-0.1753 0.1448,-0.3716 0.1626,-0.568 0.0179,-0.197 -0.001,-0.4 -0.0575,-0.5891 -0.1402,-0.4721 -0.5276,-0.8668 -1.1848,-0.9263 -21.8899,-2.051 -39.416,-8.6794 -52.1531,-18.9225 -13.114,-10.5466 -21.1527,-24.9215 -23.656,-42.0753 l -0.0462,-0.3154 0.3193,0.0297 c 1.3799,0.1303 3.2233,0.0622 5.1963,-0.6836 1.9756,-0.7465 4.0868,-2.1766 6.0016,-4.7692 4.0848,-5.5301 3.6537,-10.3674 3.1935,-15.5372 -0.1765,-1.9783 -0.357,-4.0068 -0.2962,-6.1391 0.0932,-3.2762 2.047,-5.3153 4.1053,-7.4628 0.9455,-0.9872 1.9161,-1.9994 2.7274,-3.1664 l 7e-4,6e-4 c 2.4596,-3.6226 2.5468,-7.2605 1.3256,-10.6114 -1.6278,-4.4663 -5.5751,-8.4427 -9.3538,-11.2243 l -0.1831,-0.1342 0.1157,-0.1957 c 5.3556,-9.0933 12.1334,-17.4719 20.112,-24.5756 7.5871,-6.7561 16.2652,-12.3629 25.8418,-16.3393 2.7194,-1.3647 5.4944,-2.6487 8.3237,-3.6491 2.8464,-1.0076 5.7589,-1.7369 8.7349,-1.9855 5.1877,-0.929 9.0827,-1.3912 12.9778,-1.3905 v -7e-4 c 3.9003,0 7.796,0.4649 12.9863,1.3865 2.9681,0.326 5.8681,0.9713 8.6728,1.9016 l 7e-4,-10e-4 c 2.8808,0.9541 5.665,2.2117 8.3223,3.7331 9.6725,4.0682 18.3585,9.6645 25.9417,16.4133 7.9197,7.0489 14.6413,15.3606 20.0287,24.5075 l 0.115,0.1957 -0.1825,0.1342 c -3.7787,2.781 -7.7253,6.7574 -9.3525,11.2237 -1.2212,3.3502 -1.1326,6.9874 1.329,10.6087 h 7e-4 c 0.8093,1.167 1.7812,2.1833 2.7294,3.1731 2.0556,2.1475 4.0054,4.1859 4.0987,7.4588 0.0608,2.1323 -0.1197,4.1608 -0.2963,6.1391 -0.4601,5.1698 -0.8912,10.0071 3.1936,15.5372 1.9148,2.5926 4.0259,4.0227 6.0016,4.7692 1.9729,0.7458 3.8163,0.8139 5.1962,0.6836 l 0.3187,-0.0297 -0.0456,0.3154 c -2.4993,17.126 -10.5558,31.5333 -23.7009,42.1043 -12.7358,10.2418 -30.2493,16.8795 -52.1081,18.8935 -0.6572,0.0608 -1.046,0.4562 -1.1855,0.9276 v 10e-4 c -0.0562,0.1891 -0.0747,0.3914 -0.0569,0.5872 0.0179,0.1963 0.0734,0.392 0.1627,0.5673 h -7e-4 c 0.2241,0.439 0.6771,0.7564 1.333,0.6962 2.7822,-0.2605 5.4984,-0.5944 8.1438,-0.9964 z m 2.7062,-12.0925 c 7.2083,-1.4731 14.1666,-3.7753 20.4882,-7.0813 7.2777,-3.8044 13.313,-8.8638 17.9393,-14.6763 5.757,-7.2334 9.334,-15.6378 10.4144,-24.251 1.0797,-8.6113 -0.3339,-17.4355 -4.5556,-25.5099 -2.929,-5.6016 -7.2115,-10.8481 -12.952,-15.4163 l -0.2208,-0.1752 0.2003,-0.1997 c 3.146,-3.136 5.7094,-6.8948 6.9438,-10.9572 1.0645,-3.5023 1.1419,-7.238 -0.2486,-10.9988 -0.9772,-2.6434 -2.578,-5.0812 -4.6951,-7.3054 -8.4658,-8.8917 -25.1852,-14.3961 -43.6119,-16.2679 -18.4464,-1.8738 -38.5947,-0.1058 -53.8893,5.5474 -6.8327,2.525 -12.6955,5.8264 -16.9958,9.9211 -0.1904,0.1811 -0.3762,0.363 -0.5554,0.5428 -4.5086,4.5364 -6.3434,9.5509 -6.0109,14.519 0.3326,4.9788 2.8425,9.9231 7.0152,14.3054 0.2215,0.2334 0.449,0.4662 0.6784,0.6936 l 0.2004,0.1991 -0.2209,0.1758 c -8.1484,6.4856 -13.7262,14.7782 -16.283,23.8642 -2.5145,8.9347 -2.1105,18.6442 1.6371,28.1659 5.1063,12.9738 14.238,21.9012 25.3135,27.7295 13.3864,7.045 29.6185,9.5714 45.0328,9.258 h 0.009 c 8.085,0.1646 16.3816,-0.451 24.3667,-2.0828 z m 5.1064,-141.7253 c 0.0317,-0.4073 -0.1316,-1.0315 -0.4576,-1.7508 -0.1587,-0.3505 -0.3597,-0.6923 -0.597,-1.0203 -1.4103,-1.9505 -4.1166,-3.4699 -7.2228,-4.1635 -3.1149,-0.6955 -6.6278,-0.5593 -9.6355,0.8034 -0.7128,0.3226 -1.3984,0.7147 -2.0398,1.1789 -2.0291,1.4678 -3.0533,3.1175 -3.1584,4.4471 -0.043,0.5515 0.0733,1.044 0.3425,1.4388 0.2697,0.394 0.6995,0.7008 1.2807,0.8747 1.524,0.4576 4.0451,0.0304 7.4601,-1.9234 2.178,-1.2463 4.4882,-1.8903 6.6258,-1.9373 2.172,-0.0482 4.1741,0.5184 5.6908,1.6881 0.6057,0.4674 1.0507,0.6916 1.3495,0.7266 0.1217,0.0139 0.207,-0.006 0.2565,-0.0542 0.0589,-0.0575 0.0946,-0.1633 0.1052,-0.3068 z m -51.5521,-2.0524 c 2.1376,0.047 4.4478,0.691 6.6258,1.9373 3.4157,1.9538 5.9361,2.381 7.4601,1.9228 0.5812,-0.1739 1.011,-0.4801 1.2808,-0.8748 0.2691,-0.3941 0.3854,-0.888 0.3418,-1.4381 -0.1045,-1.329 -1.1287,-2.9793 -3.1578,-4.4471 -0.6414,-0.4642 -1.327,-0.8563 -2.0398,-1.1789 -3.0071,-1.3627 -6.5206,-1.4989 -9.6355,-0.8034 -3.1062,0.6936 -5.8125,2.213 -7.2228,4.1635 -0.2373,0.328 -0.4383,0.6698 -0.597,1.0203 -0.326,0.7193 -0.49,1.3435 -0.4576,1.7514 v 0.001 c 0.0106,0.1428 0.0463,0.2492 0.1052,0.3061 0.0495,0.0483 0.1348,0.0681 0.2565,0.0542 0.2982,-0.035 0.7438,-0.2592 1.3495,-0.7266 1.5167,-1.1697 3.5188,-1.7363 5.6908,-1.6881 z m 39.9291,180.7672 c -4.623,-4.3064 -10.7238,-7.0252 -17.854,-7.0252 -7.6751,0 -14.4417,3.3033 -19.3318,8.5313 -5.0409,5.39 -8.0916,12.8284 -8.0916,20.8049 0,9.2024 3.6907,16.7922 9.2242,21.9468 2.5376,2.3638 5.4654,4.2177 8.6,5.4786 3.1334,1.2602 6.4784,1.9307 9.853,1.9307 6.7369,0 13.6013,-2.6739 19.1698,-8.651 5.5408,-5.948 8.0189,-13.2568 8.0189,-20.4313 0,-4.2839 -0.8833,-8.5207 -2.5224,-12.39 -1.6391,-3.8686 -4.0372,-7.3729 -7.0661,-10.1948 z"
         style="fill:#ffffff;fill-rule:evenodd"
         id="path83" />
      <path
         d="m 186.2894,285.2254 c 0.9052,0.0817 1.573,0.8832 1.491,1.7884 -0.0821,0.9055 -0.8835,1.573 -1.7883,1.4909 -5.6468,-0.5287 -10.958,-1.3467 -15.948,-2.4237 l -0.5644,0.347 c 1.9487,1.4759 3.2557,3.1703 3.9769,4.9266 0.7566,1.8402 0.8699,3.7397 0.41,5.5327 -0.4549,1.7688 -1.462,3.4118 -2.9515,4.7656 -2.2107,2.0076 -5.5077,3.404 -9.6425,3.6281 -2.4039,0.1302 -3.1542,1.3405 -3.9854,2.6806 -1.2323,1.987 -2.5876,4.1716 -6.8703,5.2023 -5.8418,1.4052 -9.4247,-1.7648 -11.1166,-3.9306 -1.966,1.8229 -3.8905,3.6921 -5.773,5.6092 -0.4518,0.4589 -1.1068,0.5972 -1.6808,0.4125 -7.1981,-2.0919 -15.4247,-2.0676 -19.7627,-0.8261 -1.077,0.308 -1.8089,0.6418 -2.0734,0.9729 -0.0722,0.0909 0.1372,-0.121 0.1843,-0.0706 1.1142,1.1856 4.4034,2.6177 10.7622,4.1893 0.8843,0.2174 1.4252,1.1116 1.2073,1.9954 -0.131,0.5318 -0.5059,0.9391 -0.9765,1.1323 -7.2103,3.3944 -10.8958,6.308 -12.0053,8.3174 -0.2193,0.3982 -0.3006,0.6315 -0.2579,0.7058 0.0787,0.1354 0.4095,0.2502 0.9589,0.3297 2.458,0.3558 7.0057,-0.7716 12.6197,-3.9961 0.7871,-0.4522 1.7939,-0.1807 2.2461,0.6068 0.326,0.5674 0.2767,1.2488 -0.0714,1.7548 l 10e-4,0.002 c -1.7747,2.5713 -3.0913,5.0709 -3.9957,7.3173 -0.9266,2.2983 -1.4149,4.303 -1.5216,5.8164 -0.0684,0.9766 -0.0452,1.6007 0.0644,1.7758 0.7139,0.1501 2.2855,-1.041 4.1014,-2.9772 2.2188,-2.3656 4.4928,-5.7855 5.9823,-9.481 l 0.0346,-0.0791 0.0574,-0.1438 c 0.3345,-0.8449 1.2927,-1.2581 2.1368,-0.9233 0.662,0.2624 1.059,0.9078 1.038,1.5815 h 0.001 c -0.2009,5.8805 0.6829,9.8398 1.9763,11.5574 0.2808,0.3728 0.5155,0.566 0.6841,0.5645 h 0.007 0.01 c 0.205,-0.008 0.5012,-0.237 0.8751,-0.7006 1.7029,-2.1095 3.2369,-7.3166 3.6962,-16.203 0.0342,-0.6608 0.4529,-1.2109 1.0273,-1.4442 l -7e-4,-0.002 21.4759,-8.7627 c 2.1253,-4.9046 4.6146,-9.6252 7.4958,-14.1066 0.4919,-0.7657 1.5134,-0.9887 2.2799,-0.4971 0.7664,0.4919 0.9891,1.5134 0.4971,2.2799 -4.7394,7.3714 -8.3856,15.4188 -11.0721,23.8776 8.9603,4.3776 7.3696,11.2854 6.1086,16.7618 -0.4206,1.8255 -0.7963,3.4571 -0.5784,4.4204 1.5112,6.6745 1.8288,11.6972 -0.032,15.198 -1.7998,3.3883 -5.4007,5.1824 -11.5659,5.429 -0.001,1.7379 0.025,3.4754 0.078,5.2111 0.0199,0.7311 -0.4404,1.3651 -1.0951,1.5973 -8.157,3.3474 -13.6154,8.0522 -16.1374,12.7886 -0.8548,1.6069 -1.3633,3.2068 -1.5116,4.7431 -0.1431,1.4914 0.0508,2.9279 0.5917,4.2522 0.8618,2.1081 2.6254,3.9873 5.3336,5.4289 3.5969,1.9149 12.7426,3.4964 21.1035,3.6837 6.5638,0.1461 12.495,-0.5295 14.443,-2.5408 3.2002,-3.3043 6.7073,-18.4181 8.8234,-27.5388 0.2856,-1.2334 0.5476,-2.3616 0.7786,-3.3304 -3.3764,-0.7257 -6.5019,-1.771 -9.3312,-3.1932 -0.8128,-0.4099 -1.1399,-1.4023 -0.7296,-2.2152 0.4099,-0.8124 1.4023,-1.1399 2.2147,-0.73 2.684,1.3497 5.6726,2.3296 8.918,2.9974 0.3724,0.0766 0.7481,0.1487 1.1271,0.2179 0.067,0.008 0.1332,0.0202 0.2009,0.036 2.9051,0.5141 6.0048,0.7989 9.2665,0.8927 3.2609,-0.0938 6.3599,-0.3786 9.2646,-0.8927 0.0673,-0.0165 0.135,-0.0283 0.202,-0.036 0.379,-0.0692 0.7547,-0.1417 1.1267,-0.2179 3.2458,-0.6678 6.2344,-1.6477 8.9183,-2.9974 0.8125,-0.4099 1.8049,-0.0824 2.2148,0.73 0.4099,0.8129 0.0824,1.8053 -0.7297,2.2152 -2.8296,1.4222 -5.9551,2.4675 -9.3315,3.1932 0.2314,0.9688 0.493,2.097 0.7789,3.3304 2.1155,9.1207 5.6233,24.2345 8.8235,27.5388 1.948,2.0113 7.8792,2.6869 14.4429,2.5408 8.3606,-0.1873 17.5059,-1.7688 21.1032,-3.6837 2.7078,-1.4416 4.4722,-3.3208 5.3336,-5.4289 0.5409,-1.3243 0.7352,-2.7608 0.5921,-4.2522 -0.1483,-1.5363 -0.6568,-3.1362 -1.5116,-4.7431 -2.5221,-4.7364 -7.9804,-9.4412 -16.1378,-12.7886 -0.6547,-0.2322 -1.1146,-0.8662 -1.0951,-1.5973 0.0533,-1.7357 0.0791,-3.4743 0.0784,-5.2111 -6.1656,-0.2466 -9.7665,-2.0407 -11.5663,-5.429 -1.8604,-3.5008 -1.5425,-8.5235 -0.0316,-15.198 0.2175,-0.9633 -0.1579,-2.5949 -0.5784,-4.4204 -1.2607,-5.4753 -2.8514,-12.3842 6.1085,-16.7618 -2.6861,-8.4592 -6.3326,-16.5055 -11.072,-23.8776 -0.492,-0.7665 -0.2694,-1.788 0.4971,-2.2799 0.7665,-0.4916 1.7876,-0.2686 2.2795,0.4971 2.8808,4.4818 5.3705,9.202 7.4962,14.1066 l 21.4759,8.7627 -7e-4,0.002 c 0.5744,0.2333 0.9931,0.7834 1.0266,1.4442 0.4599,8.8864 1.994,14.0935 3.6969,16.203 0.3739,0.4636 0.6701,0.6925 0.875,0.7006 h 0.01 0.007 c 0.1682,0.002 0.4037,-0.1917 0.6844,-0.5645 1.2934,-1.7176 2.1773,-5.6769 1.9764,-11.5574 h 0.002 c -0.0214,-0.6737 0.376,-1.3191 1.0376,-1.5815 0.8445,-0.3348 1.8027,0.0784 2.1371,0.9233 l 0.0575,0.1438 0.0345,0.0791 c 1.4896,3.6955 3.7636,7.1154 5.9824,9.481 1.8155,1.9362 3.3871,3.1273 4.1013,2.9772 0.109,-0.1766 0.1329,-0.7999 0.0641,-1.7758 -0.1064,-1.5134 -0.5947,-3.5181 -1.5212,-5.8164 -0.9048,-2.2464 -2.221,-4.746 -3.9957,-7.3173 l 10e-4,-0.002 c -0.3481,-0.506 -0.3978,-1.1874 -0.0718,-1.7548 0.4523,-0.7875 1.4594,-1.059 2.2464,-0.6068 5.6137,3.2245 10.1614,4.3519 12.6198,3.9961 0.549,-0.0795 0.8801,-0.1939 0.9589,-0.3297 0.0423,-0.0736 -0.0387,-0.3087 -0.258,-0.7058 -1.1098,-2.0094 -4.7949,-4.923 -12.0052,-8.3174 -0.4706,-0.1932 -0.8456,-0.6005 -0.9766,-1.1323 -0.2178,-0.8838 0.3231,-1.778 1.2073,-1.9954 6.3588,-1.5716 9.6481,-3.0037 10.7623,-4.1893 0.0467,-0.0493 0.2564,0.1615 0.1843,0.0706 -0.2646,-0.3311 -0.9964,-0.6649 -2.0735,-0.9729 -4.3383,-1.2415 -12.5645,-1.2658 -19.763,0.8261 -0.5736,0.1847 -1.2293,0.0464 -1.6805,-0.4125 -1.8825,-1.9167 -3.8069,-3.7863 -5.773,-5.6092 -1.6922,2.1658 -5.2751,5.3358 -11.1165,3.9306 -4.2831,-1.0307 -5.638,-3.2153 -6.8703,-5.2023 -0.8312,-1.3409 -1.5819,-2.5504 -3.9858,-2.6806 -4.1344,-0.2241 -7.4314,-1.6205 -9.6421,-3.6281 -1.4896,-1.3538 -2.4967,-2.9968 -2.9515,-4.7656 -0.4596,-1.7923 -0.3466,-3.6925 0.4099,-5.5327 0.7212,-1.7563 2.0279,-3.4507 3.977,-4.9266 l -0.5645,-0.347 c -4.9899,1.0777 -10.3011,1.895 -15.9479,2.4237 -0.9052,0.0821 -1.7066,-0.5854 -1.7883,-1.4909 -0.0821,-0.9052 0.5854,-1.7067 1.491,-1.7884 37.9739,-3.5578 60.2549,-20.4106 70.1656,-42.1518 2.6899,-5.8992 4.473,-12.1663 5.4165,-18.6315 -2.8219,0.2668 -7.5264,-0.2771 -11.4235,-5.5537 -4.1444,-5.6118 -3.7087,-10.5094 -3.2336,-15.86 0.17,-1.9138 0.3455,-3.8938 0.287,-5.9588 -0.0909,-3.1807 -1.9996,-5.168 -3.9343,-7.1827 -0.9961,-1.038 -2.0017,-2.0834 -2.8543,-3.3102 l 0.005,-0.003 -0.0114,-0.0166 -0.0942,-0.1379 -0.0736,-0.1034 c -2.9452,-4.4469 -2.3075,-8.9942 -0.0232,-13.0488 1.9657,-3.4901 5.1828,-6.5899 8.2832,-8.8716 -10.4218,-17.6929 -26.2366,-32.672 -45.8347,-40.8095 l -0.0169,-0.007 -0.0177,-0.007 -0.0519,-0.0221 -0.0177,-0.008 c -5.3461,-2.2118 -10.9708,-3.9144 -16.8446,-5.0253 l -0.039,-0.007 -0.004,-4e-4 c -4.1848,-0.7904 -8.497,-1.2794 -12.9222,-1.4369 -4.4299,0.1575 -8.7454,0.6476 -12.9346,1.4369 l -0.004,4e-4 -0.039,0.007 c -5.8742,1.1109 -11.5,2.8146 -16.8454,5.0253 l -0.0169,0.008 -0.017,0.008 -0.018,0.007 -0.0173,0.007 -0.0173,0.007 -0.0169,0.007 c -19.5989,8.1375 -35.4129,23.1166 -45.8348,40.8095 3.1005,2.2825 6.3176,5.3815 8.2833,8.8716 2.2843,4.0546 2.922,8.6019 -0.0232,13.0488 l -0.0743,0.1034 -0.0939,0.1379 -0.011,0.0166 0.004,0.003 c -0.8529,1.2268 -1.8578,2.2722 -2.8539,3.3102 -1.9348,2.0147 -3.8438,4.002 -3.9343,7.1827 -0.0589,2.065 0.117,4.045 0.287,5.9588 0.4747,5.3506 0.9104,10.2482 -3.2337,15.86 -3.8971,5.2766 -8.6015,5.8205 -11.4234,5.5537 0.9434,6.4652 2.7266,12.7316 5.4164,18.6315 9.9108,21.7412 32.1918,38.594 70.1657,42.1518 z m -20.762,-0.2112 c -27.115,-6.9924 -43.9751,-22.0889 -52.4004,-40.5721 -3.1409,-6.8909 -5.104,-14.245 -5.9842,-21.8177 -0.008,-0.049 -0.0125,-0.0994 -0.0165,-0.149 -0.584,-5.1096 -0.6764,-10.317 -0.3044,-15.5499 0.9225,-13.0031 4.7037,-26.1659 10.89,-38.3349 7.1867,-14.1368 16.8178,-26.1015 29.7289,-35.9527 -8.5776,-1.9866 -15.0987,-5.1401 -19.7715,-8.7491 -6.6925,-5.171 -9.6708,-11.3428 -9.549,-16.512 v -0.039 l 0.003,-0.1078 4e-4,-0.0158 0.002,-0.0199 0.001,-0.021 0.002,-0.0147 0.003,-0.0265 0.002,-0.009 0.0103,-0.0699 v -0.003 l 0.007,-0.0316 0.002,-0.009 0.005,-0.025 0.004,-0.0158 0.004,-0.0188 c 0.0106,-0.0456 0.0242,-0.0905 0.0386,-0.1347 l 0.003,-0.009 0.009,-0.0239 c 0.1332,-0.3797 0.3926,-0.6804 0.7175,-0.8713 l 0.0295,-0.0181 h 0.001 l 0.0626,-0.0335 0.006,-0.004 c 0.1464,-0.0733 0.3043,-0.1248 0.468,-0.152 9.0413,-1.8461 17.7175,-1.3861 26,1.0877 6.5759,1.9638 12.8987,5.1964 18.9517,9.5476 -2.5449,-7.4955 -0.8147,-13.5845 2.3251,-17.8868 1.5352,-2.1014 3.4008,-3.7657 5.2664,-4.9509 1.913,-1.2143 3.8754,-1.9558 5.5282,-2.1751 2.422,-0.3223 4.3211,0.4191 5.0147,2.3072 1.088,2.9569 0.5839,5.0775 0.0507,7.3177 -0.751,3.1586 -1.5756,6.6222 4.3369,14.146 4.0395,-0.7153 8.1909,-1.1628 12.4449,-1.3147 l 0.042,-0.003 0.0242,-0.001 0.0177,-8e-4 h 0.0243 0.018 0.0243 l 0.018,8e-4 0.0243,0.001 0.009,4e-4 c 4.2655,0.1516 8.4275,0.6012 12.4777,1.3169 5.9128,-7.5238 5.0882,-10.9874 4.3372,-14.146 -0.5332,-2.2402 -1.0376,-4.3608 0.0508,-7.3177 0.6932,-1.8881 2.5923,-2.6295 5.0143,-2.3072 1.6529,0.2193 3.6156,0.9608 5.5279,2.1751 1.8663,1.1852 3.7319,2.8495 5.2667,4.9509 3.1402,4.3023 4.8703,10.3913 2.3251,17.8868 6.0534,-4.3512 12.3754,-7.5838 18.952,-9.5476 8.2826,-2.4738 16.9584,-2.9338 25.9997,-1.0877 0.1641,0.0272 0.3216,0.0787 0.4684,0.152 l 0.005,0.004 0.0629,0.0335 h 0.002 l 0.0294,0.0181 c 0.3257,0.1898 0.584,0.4916 0.7176,0.8713 l 0.009,0.0239 0.003,0.009 0.0107,0.0309 0.0272,0.1038 0.005,0.0188 0.004,0.0158 0.005,0.025 0.002,0.009 0.007,0.0316 v 0.003 l 0.0103,0.0699 0.002,0.009 0.002,0.0265 0.002,0.0147 0.001,0.021 0.002,0.0199 7e-4,0.0158 0.003,0.1078 v 0.039 c 0.1214,5.1692 -2.8565,11.341 -9.5491,16.512 -4.6728,3.609 -11.1938,6.7625 -19.7714,8.7491 12.9089,9.8501 22.5426,21.8174 29.7289,35.9527 6.1862,12.169 9.9674,25.3318 10.8899,38.3349 0.3713,5.2329 0.2797,10.441 -0.3043,15.5499 -0.003,0.0504 -0.009,0.1 -0.0165,0.149 -0.8802,7.5738 -2.8433,14.9268 -5.9842,21.8177 -8.4253,18.4832 -25.2855,33.5797 -52.4004,40.5721 l 0.0313,0.0195 0.0331,0.0217 c 5.6773,3.6109 11.1563,7.4557 16.4134,11.5626 3.6068,2.8168 7.1047,5.7539 10.4844,8.8179 0.0405,0.0331 0.078,0.0681 0.1145,0.1049 2.2501,2.0425 4.4479,4.141 6.5906,6.2995 7.5705,-2.0076 16.0708,-1.9064 20.6807,-0.588 1.7268,0.4942 3.0386,1.2029 3.7518,2.0959 1.0501,1.3166 1.0321,2.7557 -0.3658,4.243 -1.1797,1.2552 -3.775,2.6196 -8.2093,3.9862 5.4963,2.9875 8.5585,5.7101 9.7132,7.8001 0.8268,1.4965 0.8599,2.8418 0.2185,3.9468 -0.6038,1.0424 -1.7574,1.7151 -3.347,1.9443 -2.1912,0.3168 -5.5618,-0.2241 -9.6156,-1.8876 0.5438,1.0601 1.0126,2.0907 1.4104,3.0769 1.0608,2.6331 1.6257,4.9922 1.7537,6.8242 0.1597,2.2726 -0.3841,3.9627 -1.5193,4.7468 l -0.007,0.005 0.001,10e-4 c -0.1597,0.1086 -0.3348,0.2035 -0.5269,0.2811 l -0.0254,0.01 8e-4,10e-4 c -2.0253,0.7963 -4.9819,-0.7808 -7.7825,-3.7679 -1.2996,-1.3865 -2.6155,-3.0957 -3.8117,-5.0003 -0.425,3.3338 -1.2956,5.7881 -2.3797,7.2279 -0.9383,1.2478 -2.0823,1.8895 -3.3381,1.8818 h -0.007 -0.0191 c -1.2113,-0.0169 -2.3822,-0.6469 -3.4151,-1.9263 -1.9995,-2.4771 -3.783,-8.0198 -4.3585,-17.0504 l -17.5262,-7.1506 c 0.9648,2.5176 1.8399,5.0779 2.6284,7.6732 l 0.0125,0.0401 0.0114,0.0397 c 0.6819,2.2523 1.3004,4.53 1.8553,6.8309 3.0096,12.4854 4.172,25.6243 3.8599,38.6786 8.3727,3.6347 14.0659,8.7079 16.8149,13.87 1.0609,1.994 1.6956,4.0131 1.8855,5.9831 0.1943,2.0135 -0.0762,3.9744 -0.8235,5.8025 -1.1496,2.8138 -3.4129,5.2729 -6.832,7.0936 -3.9928,2.1257 -13.7799,3.8739 -22.5879,4.0708 -7.3666,0.1641 -14.2101,-0.7871 -16.8708,-3.535 -3.8452,-3.9708 -7.4826,-19.6427 -9.6764,-29.1002 -0.2988,-1.29 -0.5707,-2.4609 -0.8146,-3.4783 -2.6593,0.3992 -5.4555,0.6277 -8.3687,0.7105 h -0.0897 c -2.9136,-0.0828 -5.7097,-0.3109 -8.3698,-0.7105 -0.2436,1.0174 -0.5155,2.1883 -0.8143,3.4783 -2.1938,9.4575 -5.8311,25.1294 -9.6763,29.1002 -2.6608,2.7479 -9.5042,3.6991 -16.8708,3.535 -8.808,-0.1969 -18.5951,-1.9451 -22.5886,-4.0708 -3.4184,-1.8207 -5.6818,-4.2798 -6.832,-7.0936 -0.747,-1.8281 -1.0175,-3.789 -0.8232,-5.8025 0.1903,-1.97 0.8246,-3.9891 1.8859,-5.9831 2.7483,-5.1621 8.4422,-10.2353 16.8148,-13.87 -0.312,-13.0543 0.8504,-26.1932 3.86,-38.6786 0.5549,-2.3009 1.1727,-4.5786 1.8552,-6.8309 l 0.0115,-0.0397 0.0125,-0.0401 c 0.7878,-2.5957 1.6635,-5.1556 2.6283,-7.6732 l -17.5261,7.1506 c -0.5755,9.0306 -2.3594,14.5733 -4.3589,17.0504 -1.0325,1.2794 -2.2034,1.9094 -3.4147,1.9263 h -0.0192 -0.007 c -1.2558,0.008 -2.3999,-0.634 -3.3385,-1.8818 -1.0837,-1.4398 -1.9547,-3.8941 -2.3797,-7.2279 -1.1958,1.9046 -2.5117,3.6138 -3.8113,5.0003 -2.8006,2.9871 -5.7572,4.5642 -7.7825,3.7679 l 4e-4,-10e-4 -0.025,-0.01 c -0.1917,-0.0769 -0.3673,-0.1725 -0.527,-0.2811 l 8e-4,-10e-4 -0.007,-0.005 c -1.1352,-0.7841 -1.679,-2.4742 -1.5197,-4.7468 0.1284,-1.832 0.6929,-4.1911 1.7541,-6.8242 0.3974,-0.9862 0.8662,-2.0168 1.4104,-3.0769 -4.0539,1.6635 -7.4244,2.2044 -9.6157,1.8876 -1.5896,-0.2292 -2.7435,-0.9008 -3.347,-1.9443 -0.6413,-1.105 -0.6082,-2.4503 0.2182,-3.9468 1.1551,-2.09 4.2173,-4.8126 9.7136,-7.8001 -4.4344,-1.3666 -7.03,-2.731 -8.2093,-3.9862 -1.3972,-1.4862 -1.416,-2.9264 -0.3658,-4.243 0.7128,-0.893 2.0249,-1.6017 3.7518,-2.0959 4.6106,-1.3184 13.1098,-1.4196 20.6807,0.588 2.1441,-2.1588 4.3427,-4.2599 6.5932,-6.3032 0.0338,-0.0335 0.0688,-0.0648 0.106,-0.0957 3.3808,-3.0659 6.8813,-6.0052 10.4899,-8.8234 5.2575,-4.1065 10.7361,-7.9525 16.4138,-11.5626 l 0.0327,-0.0217 z M 151.0285,130.0283 c 1.2036,-0.8338 2.4263,-1.6422 3.67,-2.4215 -3.2351,-3.7408 -7.7636,-7.0131 -13.2632,-9.9321 -5.7108,-3.0317 -12.4398,-5.6689 -19.8444,-8.0437 0.6767,3.7315 3.2723,7.9248 8.0923,11.6486 4.8295,3.7304 11.8455,6.9475 21.3453,8.7487 z m 18.6977,-10.0432 c 4.3766,-1.7324 8.9316,-3.1376 13.6486,-4.1749 -5.7929,-7.891 -4.8329,-11.9261 -3.9542,-15.6212 0.4158,-1.7467 0.8092,-3.3996 0.0655,-5.4205 -0.0872,-0.2362 -0.662,-0.2852 -1.4891,-0.1752 -1.1893,0.1583 -2.6707,0.7349 -4.1845,1.6967 -1.562,0.9917 -3.1138,2.3716 -4.3751,4.0992 -3.1884,4.3681 -4.5657,11.0566 0.2888,19.5959 z m -51.5617,-13.0355 0.0279,-0.1038 0.0107,-0.0309 z m 27.9803,83.3333 c -7.7305,6.0243 -12.9251,13.579 -15.4202,21.7662 -2.6376,8.6538 -2.2678,18.0424 1.2985,27.1028 4.8295,12.2701 13.5058,20.719 24.0601,26.2366 12.8353,6.7105 28.4665,9.1248 43.3999,8.8186 l 0.0199,-4e-4 h 0.0221 0.0202 0.0221 l 0.0202,4e-4 c 14.9331,0.3062 30.5643,-2.1081 43.4,-8.8186 10.5543,-5.5176 19.2305,-13.9665 24.0597,-26.2366 3.5667,-9.0604 3.9361,-18.449 1.2985,-27.1028 -2.4951,-8.1872 -7.6897,-15.7419 -15.4199,-21.7662 -3.5056,2.9168 -7.5981,5.2784 -11.7362,6.8084 -10.2629,3.7945 -25.9787,5.6935 -41.6539,5.6935 -15.6768,0 -31.3918,-1.899 -41.6547,-5.6935 -4.1385,-1.5307 -8.2314,-3.8912 -11.7363,-6.8084 z M 199.535,277.5 c -15.4199,0.3143 -31.6052,-2.2022 -44.9752,-9.1932 -11.2258,-5.8687 -20.4599,-14.8687 -25.6099,-27.9539 -3.8405,-9.7573 -4.2316,-19.894 -1.3766,-29.2598 2.6435,-8.6718 8.0654,-16.664 16.0999,-23.0585 -0.2171,-0.2163 -0.4316,-0.436 -0.6421,-0.6568 -2.8561,-3.0004 -5.079,-6.4188 -6.2506,-10.0454 -1.2007,-3.7165 -1.2985,-7.6309 0.1387,-11.5192 1.0336,-2.7946 2.8569,-5.5588 5.6306,-8.1993 11.3985,-10.8528 34.2262,-16.2802 56.986,-16.2802 22.7586,0 45.5867,5.4274 56.9848,16.2802 2.7737,2.6405 4.5981,5.4047 5.6309,8.2001 1.4373,3.8868 1.3394,7.8019 0.1388,11.5184 -1.1716,3.6259 -3.3945,7.045 -6.2507,10.0454 -0.2108,0.2208 -0.425,0.4397 -0.6424,0.6568 8.0349,6.3945 13.4564,14.3867 16.0999,23.0585 2.855,9.3658 2.4643,19.5025 -1.3762,29.2598 -5.1504,13.0852 -14.3841,22.0852 -25.61,27.9539 -13.3699,6.991 -29.556,9.5075 -44.9759,9.1932 z M 168.13,156.2075 c 10.002,-2.4889 17.1475,-1.4229 20.9232,1.3115 1.6875,1.2227 2.7542,2.781 3.1652,4.5333 0.4059,1.7342 0.1523,3.6149 -0.793,5.5029 -2.1949,4.3832 -8.3697,8.9481 -18.9395,11.5784 -10.8534,2.7004 -17.9294,1.9476 -21.5833,-0.4997 -1.7839,-1.1956 -2.8226,-2.7852 -3.1523,-4.6036 -0.3168,-1.7438 0.0463,-3.6451 1.0465,-5.5478 2.4859,-4.7269 9.1851,-9.7504 19.3332,-12.275 z m 31.4058,148.6713 c 7.661,0 14.5942,3.3293 19.6073,8.7116 4.9841,5.3498 8.0673,12.7323 8.0673,20.8764 0,8.1438 -3.0832,15.5266 -8.0673,20.8761 -5.0131,5.3822 -11.9463,8.7116 -19.6073,8.7116 -7.6614,0 -14.595,-3.3294 -19.6085,-8.7116 -4.9837,-5.3495 -8.0669,-12.7323 -8.0669,-20.8761 0,-8.1441 3.0832,-15.5266 8.0669,-20.8764 5.0135,-5.3823 11.9471,-8.7116 19.6085,-8.7116 z m 17.1927,10.9583 c -4.4034,-4.7276 -10.4829,-7.6525 -17.1927,-7.6525 -6.7099,0 -12.7901,2.9249 -17.1936,7.6525 -4.4332,4.7586 -7.1756,11.3451 -7.1756,18.6297 0,7.2842 2.7424,13.8708 7.1756,18.6293 4.4035,4.7276 10.4837,7.6526 17.1936,7.6526 6.7098,0 12.7893,-2.925 17.1927,-7.6526 4.4333,-4.7585 7.1757,-11.3451 7.1757,-18.6293 0,-7.2846 -2.7424,-13.8711 -7.1757,-18.6297 z m -1.0328,-200.0269 c 4.7173,1.0369 9.2719,2.4425 13.6489,4.1749 4.8545,-8.5393 3.4772,-15.2278 0.2888,-19.5959 -1.2614,-1.7276 -2.8134,-3.1075 -4.3751,-4.0992 -1.5138,-0.9618 -2.9952,-1.5384 -4.1845,-1.6967 -0.8272,-0.11 -1.4027,-0.061 -1.4891,0.1752 -0.7437,2.0209 -0.3503,3.6738 0.0655,5.4205 0.8787,3.6951 1.8387,7.7302 -3.9545,15.6212 z m 28.6762,11.7966 c 1.244,0.7793 2.4668,1.5877 3.6704,2.4215 9.4997,-1.8012 16.5157,-5.0183 21.3453,-8.7487 4.8199,-3.7238 7.4155,-7.9171 8.0922,-11.6486 -7.4049,2.3748 -14.1339,5.012 -19.8443,8.0437 -5.4992,2.919 -10.0278,6.1913 -13.2636,9.9321 z m -4.3181,66.3848 c 4.9863,-1.8431 9.8927,-4.9981 13.5959,-8.8871 2.5338,-2.6611 4.4929,-5.6538 5.5026,-8.78 0.9806,-3.0357 1.0645,-6.2237 -0.1005,-9.375 -0.8629,-2.3358 -2.4179,-4.6742 -4.8041,-6.9464 -10.7564,-10.2416 -32.701,-15.3636 -54.7119,-15.3636 -22.0117,0 -43.9563,5.122 -54.7127,15.3636 -2.3862,2.2722 -3.9405,4.6106 -4.8041,6.946 -1.1657,3.1524 -1.0811,6.3397 -0.1005,9.3754 1.0097,3.1266 2.9688,6.1189 5.5026,8.78 3.7028,3.889 8.6107,7.0429 13.5955,8.8871 9.8916,3.6568 25.1864,5.4871 40.5192,5.4871 15.3312,0 30.6267,-1.8303 40.518,-5.4871 z M 210.0176,157.519 c 3.7749,-2.7344 10.9212,-3.8004 20.9232,-1.3115 10.1481,2.5246 16.8472,7.5481 19.3328,12.275 1.0009,1.9034 1.3637,3.804 1.0469,5.5478 -0.3297,1.8184 -1.3688,3.408 -3.1524,4.6036 -3.6535,2.4473 -10.7298,3.2001 -21.5833,0.4997 -10.5698,-2.6303 -16.7446,-7.1952 -18.9398,-11.5784 -0.9457,-1.888 -1.1985,-3.7687 -0.7926,-5.5029 0.411,-1.7523 1.4784,-3.311 3.1652,-4.5333 z"
         style="fill:#c2272d;fill-rule:evenodd"
         id="path84" />
      <path
         d="m 183.9614,133.5439 c -4.3037,-2.4636 -9.1092,-2.527 -12.0382,-0.2684 -2.2381,1.725 -2.5608,0.3511 -1.6365,-1.6887 2.3373,-5.1606 13.2053,-8.122 19.872,-3.302 6.1788,4.4703 3.3251,10.7066 -6.1973,5.2591 z"
         style="fill:#c2272d;fill-rule:evenodd"
         id="path85" />
      <path
         d="m 215.1099,133.5439 c 4.3037,-2.4636 9.1092,-2.527 12.0382,-0.2684 2.2381,1.725 2.5608,0.3511 1.6365,-1.6887 -2.3373,-5.1606 -13.2053,-8.122 -19.872,-3.302 -6.1788,4.4703 -3.3251,10.7066 6.1973,5.2591 z"
         style="fill:#c2272d;fill-rule:evenodd"
         id="path86" />
      <path
         d="m 169.7261,119.985 c 4.377,-1.7323 8.9319,-3.1374 13.6488,-4.1748 -8.9352,-12.1711 -1.77,-15.2674 -3.8891,-21.0416 -0.3206,-0.8741 -6.1781,0.3194 -10.0487,5.6208 -3.1882,4.3678 -4.5655,11.0563 0.289,19.5956 z"
         style="fill:#ffd0c0;fill-rule:evenodd"
         id="path87" />
      <path
         d="m 154.6986,127.6065 c -7.445,-8.6074 -21.4297,-14.2301 -33.1076,-17.9757 0.6764,3.7317 3.2722,7.925 8.0923,11.6488 4.8293,3.7304 11.8451,6.9477 21.3451,8.7488 1.2033,-0.8338 2.4265,-1.6424 3.6702,-2.4219 z"
         style="fill:#ffd0c0;fill-rule:evenodd"
         id="path88" />
      <path
         d="m 219.5848,94.7686 c -2.1191,5.7742 5.0462,8.8705 -3.8891,21.0416 4.7169,1.0368 9.2718,2.4425 13.6489,4.1748 5.8568,-10.3026 2.9839,-19.2035 -4.0861,-23.695 -1.8533,-1.1769 -5.3755,-2.3333 -5.6737,-1.5214 z"
         style="fill:#ffd0c0;fill-rule:evenodd"
         id="path89" />
      <path
         d="m 277.4796,109.6308 c -11.6792,3.7456 -25.6606,9.3677 -33.1076,17.9757 1.2437,0.7795 2.4669,1.5881 3.6703,2.4219 9.4999,-1.8011 16.5158,-5.0184 21.3451,-8.7488 4.82,-3.7238 7.4158,-7.9171 8.0922,-11.6488 z"
         style="fill:#ffd0c0;fill-rule:evenodd"
         id="path90" />
      <path
         d="m 216.7285,315.837 c -15.3038,-16.4298 -41.5622,-4.7241 -41.5622,18.6296 0,23.3518 26.2564,35.0601 41.5622,18.6296 9.5687,-10.2715 9.5693,-26.9876 0,-37.2592 z"
         style="fill:#ffffff;fill-rule:evenodd"
         id="path91" />
      <path
         d="m 156.0831,265.3885 c 12.9725,6.7818 28.3544,9.0609 43.4202,8.8182 l 0.0846,7e-4 c 26.7298,0.7048 56.7404,-7.8225 67.4595,-35.0554 7.1514,-18.1681 1.3059,-36.8473 -14.1216,-48.869 -3.5056,2.9165 -7.5977,5.2782 -11.736,6.8082 -20.5286,7.5898 -62.783,7.5905 -83.3089,0 -4.1384,-1.5306 -8.2311,-3.8911 -11.7361,-6.8082 -27.742,21.6181 -19.8739,59.52 9.9383,75.1055 z"
         style="fill:#ffffff;fill-rule:evenodd"
         id="path92" />
      <path
         d="m 199.5357,224.5774 c -2.8524,-6e-4 -5.7067,1.6979 -7.9601,5.0905 -3.3859,5.0977 -0.5646,2.7426 1.8818,1.4123 1.8281,-0.9931 3.9605,-2.0067 6.0783,-1.9128 2.1177,-0.0939 4.2501,0.9197 6.0782,1.9128 2.4464,1.3303 5.2677,3.6854 1.8818,-1.4123 -2.2533,-3.3926 -5.1077,-5.0911 -7.96,-5.0905 z"
         style="fill:#c2272d;fill-rule:evenodd"
         id="path93" />
      <path
         d="m 199.5357,247.1186 c -5.2287,0 -10.4567,-1.5498 -14.9568,-4.6515 -3.4751,-2.3941 -3.2609,-1.3395 -0.9011,1.6695 3.8388,4.8948 9.8483,7.3405 15.8579,7.3405 6.0095,0 12.019,-2.4457 15.8579,-7.3405 2.3597,-3.009 2.574,-4.0636 -0.9012,-1.6695 -4.5001,3.1017 -9.7281,4.6515 -14.9567,4.6515 z"
         style="fill:#c2272d;fill-rule:evenodd"
         id="path94" />
      <path
         d="m 170.3542,205.3025 c 6.2297,-0.2784 12.5169,3.8144 15.4248,9.9132 2.3756,4.982 -1.7673,9.7902 -5.5103,3.7588 -2.0603,-3.3198 -4.8333,-7.2281 -10.5565,-8.846 -6.6311,-1.8745 -7.4992,-4.4623 0.642,-4.826 z"
         style="fill:#c2272d;fill-rule:evenodd"
         id="path95" />
      <path
         d="m 228.7171,205.3025 c -6.2297,-0.2784 -12.5169,3.8144 -15.4248,9.9132 -2.3756,4.982 1.7674,9.7902 5.5103,3.7588 2.0603,-3.3198 4.8333,-7.2281 10.5565,-8.846 6.6311,-1.8745 7.4992,-4.4623 -0.642,-4.826 z"
         style="fill:#c2272d;fill-rule:evenodd"
         id="path96" />
      <path
         d="m 148.5635,230.4256 c 8.8202,6.8268 28.2128,5.6188 19.1995,-1.3567 -8.8196,-6.8261 -28.2128,-5.6188 -19.1995,1.3567 z"
         style="fill:#ffd0c0;fill-rule:evenodd"
         id="path97" />
      <path
         d="m 231.3077,229.0689 c -9.0133,6.9755 10.3793,8.1828 19.1995,1.3567 7.0039,-5.4204 -3.0877,-6.9828 -10.6788,-5.15 -3.5076,0.847 -6.5081,2.2355 -8.5207,3.7933 z"
         style="fill:#ffd0c0;fill-rule:evenodd"
         id="path98" />
    </g>
  </g>
</svg>
